<svg xmlns="http://www.w3.org/2000/svg" xmlns:xlink="http://www.w3.org/1999/xlink" version="1.1" width="256" height="256" viewBox="0 0 256 256" xml:space="preserve">

<defs>
</defs>
<g style="stroke: none; stroke-width: 0; stroke-dasharray: none; stroke-linecap: butt; stroke-linejoin: miter; stroke-miterlimit: 10; fill: none; fill-rule: nonzero; opacity: 1;" transform="translate(1.4065934065934016 1.4065934065934016) scale(2.81 2.81)" >
	<path d="M 88.852 52.942 l -18.509 -8.713 V 33.088 c 0 -0.715 -0.382 -1.376 -1.001 -1.733 L 47.256 18.629 v -8.502 h 4.565 c 1.07 0 1.937 -1.01 1.937 -2.256 s -0.867 -2.256 -1.937 -2.256 h -4.565 V 2.703 c 0 -1.246 -1.01 -2.256 -2.256 -2.256 s -2.256 1.01 -2.256 2.256 v 2.911 h -4.565 c -1.07 0 -1.937 1.01 -1.937 2.256 s 0.867 2.256 1.937 2.256 h 4.565 v 8.502 L 20.658 31.355 c -0.62 0.357 -1.001 1.018 -1.001 1.733 v 11.142 L 1.148 52.942 C 0.447 53.272 0 53.978 0 54.752 v 32.802 c 0 1.104 0.896 2 2 2 h 33.008 V 67.486 c 0 -5.51 4.482 -9.993 9.992 -9.993 s 9.992 4.483 9.992 9.993 v 22.067 H 88 c 1.104 0 2 -0.896 2 -2 V 54.752 C 90 53.978 89.553 53.272 88.852 52.942 z M 25.99 77.022 c 0 1.104 -0.896 2 -2 2 h -9.365 c -1.104 0 -2 -0.896 -2 -2 V 65.266 c 0 -3.685 2.998 -6.682 6.683 -6.682 s 6.682 2.997 6.682 6.682 V 77.022 z M 45 43.639 c -3.597 0 -6.524 -2.927 -6.524 -6.524 s 2.927 -6.524 6.524 -6.524 c 3.597 0 6.523 2.927 6.523 6.524 S 48.597 43.639 45 43.639 z M 77.375 77.022 c 0 1.104 -0.896 2 -2 2 h -9.364 c -1.104 0 -2 -0.896 -2 -2 V 65.266 c 0 -3.685 2.997 -6.682 6.682 -6.682 s 6.683 2.997 6.683 6.682 V 77.022 z" style="stroke: none; stroke-width: 1; stroke-dasharray: none; stroke-linecap: butt; stroke-linejoin: miter; stroke-miterlimit: 10; fill: rgb(78,0,0); fill-rule: nonzero; opacity: 1;" transform=" matrix(1 0 0 1 0 0) " stroke-linecap="round" />
</g>
</svg>