<svg xmlns="http://www.w3.org/2000/svg" xmlns:v="https://svgstorm.com"
viewBox = "0 0 1025 417"
width="1025"
height="417">
<g fill="None" fill-opacity="0.0" stroke="#000000" stroke-opacity="0.00" stroke-width="0.3"><path d="
M 0.00 109.00 
C 39.67 109.00 79.33 109.00 119.00 109.00
C 119.00 72.67 119.00 36.33 119.00 0.00
L 0.00 0.00
L 0.00 109.00
M 112.00 70.00 
C 104.68 67.94 96.29 61.40 91.25 55.75 C 86.20 50.10 77.58 43.56 74.23 37.77 C 70.88 31.98 56.21 24.38 62.70 19.70 C 69.19 15.02 84.83 15.84 92.07 19.93 C 99.32 24.01 105.37 29.31 109.75 37.25 C 114.14 45.19 111.11 60.66 112.00 70.00
M 112.00 102.00 
C 73.58 105.56 58.70 61.31 30.00 45.00
C 36.24 40.20 44.84 35.77 53.00 37.00 C 61.16 38.23 66.38 43.41 72.25 48.75 C 78.11 54.09 81.50 59.16 87.75 64.25 C 94.00 69.34 95.92 75.55 104.23 78.77 C 112.54 81.99 113.64 92.64 112.00 102.00
M 77.00 102.00 
C 64.77 101.15 50.07 104.73 39.77 98.23 C 29.47 91.73 29.24 85.47 18.75 78.25 C 8.27 71.02 22.97 60.75 33.00 63.00 C 43.03 65.25 49.75 72.98 56.75 80.25 C 63.75 87.51 70.96 94.72 77.00 102.00 Z"/>
</g>
<g fill="None" fill-opacity="0.0" stroke="#AA0000" stroke-opacity="0.98" stroke-width="0.3"><path d="
M 0.00 109.00 
L 0.00 128.00
C 1.19 136.66 1.85 147.62 1.00 157.00
C 40.32 156.99 79.45 158.83 119.00 158.00
C 119.00 197.00 119.00 236.00 119.00 275.00
C 136.33 275.00 153.67 275.00 171.00 275.00
C 171.00 236.00 171.00 197.00 171.00 158.00
C 211.00 158.00 251.00 158.00 291.00 158.00
C 291.00 141.67 291.00 125.33 291.00 109.00
C 250.93 108.93 210.72 109.46 171.00 108.00
C 171.00 72.00 171.00 36.00 171.00 0.00
L 119.00 0.00
C 119.00 36.33 119.00 72.67 119.00 109.00
C 79.33 109.00 39.67 109.00 0.00 109.00 Z"/>
</g>
<g fill="None" fill-opacity="0.0" stroke="#000000" stroke-opacity="0.00" stroke-width="0.3"><path d="
M 1.00 157.00 
C 0.50 157.00 0.00 157.00 0.00 157.00
L 0.00 417.00
L 135.00 417.00
C 129.38 415.35 123.06 413.29 117.00 412.00
C 118.54 403.99 117.88 395.38 118.00 387.00
C 128.94 385.97 122.49 404.31 134.08 406.92 C 145.66 409.54 154.89 411.72 165.22 407.22 C 175.55 402.72 180.35 395.99 180.00 385.00 C 179.65 374.01 169.90 368.96 159.93 368.07 C 149.95 367.18 138.34 367.04 128.92 363.08 C 119.51 359.11 115.65 348.99 116.00 339.00 C 116.35 329.01 120.03 320.49 128.23 314.23 C 136.43 307.97 146.22 305.74 157.00 306.00 C 167.78 306.26 178.17 308.05 188.00 312.00
C 183.37 318.62 191.26 335.58 179.00 334.00
C 185.59 306.78 128.15 304.03 130.02 334.02 C 131.90 364.01 176.35 344.81 189.92 365.08 C 203.49 385.35 182.26 416.13 159.00 417.00
L 213.00 417.00
C 199.14 412.61 196.62 392.68 206.75 382.75 C 216.89 372.82 232.97 373.13 246.00 370.00
C 249.79 348.76 213.26 342.22 212.00 364.00
C 198.16 360.82 209.39 347.69 219.08 345.08 C 228.77 342.46 240.64 339.22 250.23 345.77 C 259.82 352.32 259.52 362.80 260.00 374.00 C 260.48 385.20 258.29 399.42 262.00 410.00
C 265.00 410.00 268.00 410.00 271.00 410.00
C 271.42 421.93 253.93 412.68 246.00 416.00
C 246.00 412.00 246.00 408.00 246.00 404.00
C 239.51 407.53 234.13 413.33 228.00 417.00
L 457.00 417.00
C 421.05 412.04 396.51 372.64 412.92 337.92 C 429.33 303.21 476.57 299.83 509.00 312.00
C 504.37 319.23 510.98 336.95 499.00 336.00
C 503.45 322.86 493.07 317.35 482.98 315.02 C 472.88 312.70 460.49 312.26 451.32 316.32 C 442.15 320.38 436.87 325.07 431.25 333.25 C 425.62 341.42 424.93 353.85 425.33 363.67 C 425.73 373.49 430.10 382.38 435.75 390.25 C 441.40 398.12 448.56 401.75 457.08 405.92 C 465.59 410.10 480.71 408.19 489.02 407.02 C 497.34 405.86 511.63 394.88 508.23 405.23 C 504.83 415.58 490.20 412.23 483.00 417.00
L 635.00 417.00
C 631.91 415.35 627.56 415.25 624.00 414.00
C 623.96 406.59 625.70 399.59 625.00 392.00
C 633.94 392.16 629.38 407.07 640.07 408.93 C 650.77 410.78 657.19 412.85 664.75 404.75 C 672.31 396.65 665.37 388.12 656.78 386.22 C 648.18 384.33 638.87 383.55 631.25 378.75 C 623.63 373.94 622.73 363.16 626.31 355.31 C 629.89 347.46 637.26 342.83 646.02 342.02 C 654.78 341.22 666.16 342.28 674.07 345.93
C 672.81 351.51 674.57 358.07 674.00 364.00
C 666.11 364.52 666.92 350.82 657.78 349.22 C 648.64 347.62 639.89 347.86 636.68 357.68 C 633.47 367.50 645.98 370.12 653.07 371.93 C 660.17 373.74 670.31 373.74 675.75 380.25 C 681.20 386.75 680.76 397.35 676.23 404.23 C 671.70 411.10 664.14 414.65 657.00 417.00
L 709.00 417.00
C 689.98 404.80 702.69 376.41 699.00 357.00
C 694.81 356.67 690.92 357.23 687.00 358.00
C 685.53 351.31 694.53 350.99 699.00 349.00
C 699.00 340.67 699.00 332.33 699.00 324.00
C 704.30 323.41 713.85 314.72 714.00 324.00 C 714.15 333.29 712.55 338.90 713.00 348.00
C 720.00 348.00 727.00 348.00 734.00 348.00
C 736.55 360.80 720.45 354.58 713.00 356.00
C 711.89 367.71 714.48 380.38 713.00 392.00 C 711.52 403.62 721.60 411.95 731.00 403.00
C 735.85 408.21 726.88 414.55 723.00 417.00
L 766.00 417.00
C 740.31 411.24 732.52 376.00 747.25 356.25 C 761.99 336.51 797.84 336.15 810.31 358.70 C 822.77 381.24 809.20 411.94 784.00 417.00
L 852.00 417.00
C 848.67 414.98 844.28 413.65 841.00 411.00
C 839.02 413.91 835.72 416.44 832.00 416.00
C 832.90 382.29 835.04 346.26 831.00 313.00
C 827.33 313.00 823.67 313.00 820.00 313.00
C 817.85 305.25 826.47 306.81 831.67 305.67 C 836.87 304.54 842.44 302.11 848.00 302.00
C 846.79 319.77 846.91 337.90 847.00 356.00
C 860.73 335.77 894.34 337.38 900.93 362.07 C 907.51 386.76 890.16 407.73 869.00 417.00
L 922.00 417.00
C 908.75 412.26 905.71 392.77 915.77 382.77 C 925.83 372.77 942.97 373.13 956.00 370.00
C 955.39 363.25 953.32 357.28 947.75 353.25 C 942.18 349.21 933.69 351.06 928.31 352.31 C 922.92 353.55 921.39 369.82 916.08 361.92 C 910.78 354.01 920.34 349.49 925.70 346.70 C 931.05 343.90 939.12 341.03 946.00 342.00 C 952.88 342.97 959.60 343.81 964.25 349.75 C 968.89 355.70 969.54 362.23 969.00 370.00 C 968.46 377.77 969.90 386.35 970.00 394.00 C 970.10 401.65 968.03 413.42 980.00 410.00
C 980.65 421.83 963.65 412.58 956.00 416.00
C 956.00 412.00 956.00 408.00 956.00 404.00
C 949.58 407.22 943.68 412.67 938.00 417.00
L 1025.00 417.00
L 1025.00 416.00
C 1011.74 414.85 999.42 415.89 986.00 416.00
C 985.00 406.98 999.01 412.57 998.00 403.00 C 996.99 393.43 999.76 387.19 999.00 378.00 C 998.24 368.81 999.08 360.98 999.00 352.00 C 998.92 343.02 998.78 335.48 998.22 326.78 C 997.66 318.08 998.46 309.46 986.00 313.00
C 984.24 305.16 992.92 307.06 998.00 306.00 C 1003.08 304.94 1008.53 301.91 1014.00 302.00
C 1013.08 314.71 1012.17 328.16 1012.00 341.00 C 1011.83 353.84 1011.74 369.49 1012.00 382.00 C 1012.26 394.51 1008.56 412.14 1025.00 411.00
L 1025.00 249.00
C 1020.50 260.64 1010.72 269.95 996.75 272.80 C 982.79 275.66 968.10 272.61 954.90 269.09 C 941.70 265.57 945.48 250.66 942.00 237.00
C 944.82 235.61 948.12 238.29 951.00 236.00
C 955.28 248.62 964.77 256.34 975.30 263.71 C 985.84 271.09 1012.37 257.71 1003.61 244.25 C 994.84 230.78 978.81 235.95 967.77 230.79 C 956.72 225.63 944.22 217.38 944.07 202.92 C 943.91 188.46 949.93 178.30 961.92 171.87 C 973.91 165.44 991.00 168.09 1005.25 170.19 C 1019.49 172.30 1017.69 188.06 1018.79 200.23
C 1015.64 202.46 1012.81 200.64 1009.00 202.00
C 1005.50 190.52 997.86 180.94 985.75 177.80 C 973.65 174.66 956.58 184.11 964.71 196.30 C 972.85 208.49 988.91 205.82 999.75 210.39 C 1010.59 214.97 1021.43 221.08 1024.00 234.00
C 1024.03 234.12 1025.00 234.00 1025.00 234.00
L 1025.00 0.00
L 171.00 0.00
C 171.00 36.00 171.00 72.00 171.00 108.00
C 210.72 109.46 250.93 108.93 291.00 109.00
C 291.00 125.33 291.00 141.67 291.00 158.00
C 251.00 158.00 211.00 158.00 171.00 158.00
C 171.00 197.00 171.00 236.00 171.00 275.00
C 153.67 275.00 136.33 275.00 119.00 275.00
C 119.00 236.00 119.00 197.00 119.00 158.00
C 79.45 158.83 40.32 156.99 1.00 157.00
M 177.00 71.00 
C 175.83 58.66 175.09 36.91 186.25 30.25 C 197.40 23.59 203.53 6.38 214.75 16.25 C 225.97 26.12 213.73 40.82 204.75 47.75 C 195.77 54.68 185.39 62.79 177.00 71.00
M 198.00 102.00 
C 191.00 102.00 184.00 102.00 177.00 102.00
C 174.88 92.82 178.70 82.57 184.25 76.25 C 189.79 69.93 194.14 64.07 201.08 60.08 C 208.02 56.10 213.30 48.50 220.25 45.25 C 227.19 42.00 230.65 31.43 236.75 28.75 C 242.86 26.08 250.04 44.10 247.00 50.00 C 243.96 55.90 237.67 64.07 231.75 68.75 C 225.84 73.44 218.88 77.85 213.25 83.25 C 207.62 88.65 200.34 94.66 198.00 102.00
M 265.00 55.00 
C 273.02 68.86 269.24 82.63 257.25 93.25 C 245.26 103.87 226.99 102.72 211.00 102.00
C 223.33 81.53 245.45 66.87 265.00 55.00
M 440.00 116.00 
C 441.95 127.69 448.37 139.16 448.00 154.00
C 444.00 154.00 440.00 154.00 436.00 154.00
C 427.18 138.42 414.04 127.09 397.25 123.61 C 380.45 120.13 359.41 124.60 351.29 141.30 C 343.16 158.01 338.96 167.73 338.07 190.07 C 337.19 212.42 342.33 229.54 351.75 243.25 C 361.17 256.97 379.45 264.52 397.25 261.20 C 415.04 257.88 428.29 244.04 438.00 228.00
C 442.39 230.01 445.73 225.69 451.00 227.00
C 446.46 244.06 449.52 262.47 433.30 267.64 C 417.07 272.81 393.65 275.32 373.25 272.41 C 352.86 269.49 345.03 267.44 330.10 255.90 C 315.17 244.37 307.32 230.81 303.20 214.75 C 299.08 198.70 301.62 175.66 306.76 161.75 C 311.90 147.85 322.48 132.23 337.25 123.81 C 352.03 115.39 362.11 110.01 383.03 109.03 C 403.95 108.04 422.57 113.25 440.00 116.00
M 701.00 110.00 
C 712.78 109.95 720.54 124.06 714.81 134.25 C 709.08 144.45 693.29 145.10 687.61 134.25 C 681.92 123.39 687.04 110.05 701.00 110.00
M 551.00 116.00 
C 539.89 130.00 525.38 141.18 515.00 156.00
C 512.39 154.43 508.60 154.56 506.00 156.00
C 507.88 141.02 515.23 130.09 517.00 116.00
C 528.40 115.05 539.92 119.06 551.00 116.00
M 783.00 148.00 
C 782.89 156.36 784.18 166.52 783.00 175.00
C 791.74 175.34 799.71 173.39 808.00 175.00
C 806.28 178.68 808.28 182.83 807.00 187.00
C 799.24 185.14 789.94 188.25 782.00 186.00
C 782.40 203.26 785.06 227.71 782.67 244.67 C 780.28 261.63 796.25 259.27 805.00 252.00
C 805.14 254.33 807.61 256.94 810.00 257.00
C 799.25 273.89 772.36 279.68 761.20 262.75 C 750.04 245.82 758.14 211.81 756.00 186.00
C 750.96 186.22 745.68 185.31 741.00 187.00
C 742.72 183.96 740.81 181.31 741.00 178.00
C 754.36 176.21 770.12 161.72 775.00 148.00
C 777.67 148.00 780.33 148.00 783.00 148.00
M 625.00 163.00 
C 624.20 169.85 621.90 182.63 626.00 188.00
C 628.79 178.13 639.02 166.77 650.22 167.78 C 661.42 168.78 668.23 183.09 660.81 192.25 C 653.38 201.41 641.29 193.87 633.00 189.00
C 625.96 196.77 624.43 204.67 625.99 216.01 C 627.56 227.34 625.26 244.15 626.80 255.25 C 628.35 266.35 641.78 259.74 649.00 264.00
C 648.37 266.16 648.40 268.77 649.00 271.00
C 625.15 270.57 605.00 268.81 582.00 271.00
C 582.74 269.06 582.68 267.02 582.00 265.00
C 588.16 261.24 597.24 264.17 599.20 255.75 C 601.15 247.34 599.04 231.75 599.02 221.98 C 599.01 212.20 599.43 203.59 599.00 195.00
C 594.19 191.87 589.51 191.94 585.00 189.00
C 585.38 186.69 586.10 185.16 585.00 183.00
C 597.30 183.14 607.76 174.48 615.00 163.00
C 617.98 164.79 621.98 160.89 625.00 163.00
M 714.00 162.00 
C 713.68 195.00 713.81 229.36 713.00 261.00
C 719.85 264.19 733.55 259.28 731.00 272.00
C 719.76 269.59 706.43 271.94 695.00 270.00 C 683.57 268.06 665.57 278.16 667.00 263.00
C 672.57 260.25 684.65 266.16 686.13 258.08 C 687.61 250.01 685.99 237.32 687.00 227.00 C 688.01 216.68 686.04 199.56 687.00 190.00
C 681.37 184.96 677.11 186.72 670.00 184.00
C 668.09 185.29 669.39 178.71 669.00 177.00
C 683.63 177.15 694.47 174.04 704.00 162.00
C 706.91 163.58 711.10 163.49 714.00 162.00
M 77.00 164.00 
C 73.90 171.07 67.00 178.05 61.25 183.25 C 55.49 188.45 47.46 195.84 41.25 199.25 C 35.05 202.67 26.15 215.81 21.08 208.92 C 16.01 202.03 17.26 188.61 22.75 181.75 C 28.25 174.90 33.69 168.92 42.69 165.69 C 51.70 162.47 66.88 164.61 77.00 164.00
M 111.00 164.00 
C 113.54 202.22 67.63 211.86 50.00 239.00
C 32.27 227.92 42.73 207.65 56.08 198.08 C 69.44 188.52 82.49 178.13 90.00 164.00
C 97.00 164.00 104.00 164.00 111.00 164.00
M 260.00 220.00 
C 248.17 236.14 226.58 227.54 215.75 215.25 C 204.92 202.95 194.11 189.78 179.00 184.00
C 175.99 173.55 179.60 161.31 190.00 164.00 C 200.40 166.69 203.77 168.67 211.23 173.77 C 218.69 178.87 221.75 183.77 227.25 189.75 C 232.76 195.73 236.66 200.14 242.25 205.75 C 247.83 211.37 253.19 216.44 260.00 220.00
M 213.00 164.00 
C 225.43 164.59 239.69 161.60 250.25 167.75 C 260.80 173.91 262.01 180.12 272.25 187.75 C 282.48 195.38 268.39 204.62 258.00 203.00 C 247.61 201.37 241.00 192.29 233.75 185.25 C 226.51 178.20 219.62 171.39 213.00 164.00
M 566.00 256.00 
C 566.41 252.31 568.15 250.52 571.00 248.00
C 572.56 250.03 574.39 249.42 576.00 252.00
C 573.81 260.59 569.50 271.03 557.92 271.93 C 546.34 272.84 537.63 263.98 535.00 254.00
C 523.87 269.81 504.22 276.98 484.25 271.60 C 464.27 266.23 472.14 236.98 488.25 230.81 C 504.37 224.64 515.23 215.78 532.00 212.00
C 530.22 199.48 535.32 179.33 522.30 176.36 C 509.27 173.40 498.30 183.02 497.41 194.75 C 496.52 206.49 481.85 208.11 472.00 211.00
C 468.56 201.03 474.31 191.58 481.75 184.75 C 489.19 177.93 496.35 174.88 505.08 171.94 C 513.82 169.00 526.06 167.28 536.25 168.80 C 546.44 170.32 553.50 176.09 556.19 185.25 C 558.88 194.42 557.61 208.70 558.78 220.22 C 559.94 231.74 552.71 254.44 566.00 256.00
M 914.00 256.00 
C 915.72 255.12 917.20 255.25 919.00 256.00
C 921.18 252.95 920.47 248.72 926.00 248.00
C 925.61 250.73 928.93 251.37 930.00 253.00
C 926.38 261.70 921.86 271.54 910.77 271.79 C 899.68 272.03 890.71 264.91 889.00 254.00
C 877.24 268.69 862.78 275.94 840.30 271.69 C 817.83 267.45 824.75 237.96 841.75 230.74 C 858.75 223.52 869.04 216.93 886.00 211.00
C 887.27 195.15 885.50 175.52 869.75 176.80 C 854.01 178.08 852.12 186.55 851.00 200.00
C 841.85 205.90 835.87 209.51 825.00 211.00
C 822.56 192.31 842.33 175.20 857.25 171.24 C 872.17 167.29 901.40 163.60 908.19 181.25 C 914.99 198.90 908.01 236.24 914.00 256.00
M 111.00 196.00 
C 111.88 207.56 113.00 230.73 101.75 236.75 C 90.50 242.77 84.25 259.92 73.25 250.75 C 62.24 241.58 73.35 225.28 82.75 218.75 C 92.16 212.22 101.82 203.19 111.00 196.00
M 230.00 246.00 
C 215.29 251.99 201.01 249.53 189.25 238.75 C 177.48 227.97 176.89 211.28 180.00 196.00
C 190.01 201.57 200.00 209.26 207.75 218.25 C 215.50 227.24 225.97 235.39 230.00 246.00
M 600.00 308.00 
C 610.61 311.03 603.84 330.93 592.78 325.22 C 581.71 319.51 588.93 304.84 600.00 308.00
M 762.00 337.00 
C 768.33 326.40 774.22 327.58 782.25 316.25 C 790.28 304.91 803.01 316.79 790.30 323.30 C 777.60 329.82 775.61 335.75 762.00 337.00
M 301.00 355.00 
C 306.81 352.67 309.22 346.33 315.08 344.08 C 320.94 341.83 330.78 340.51 337.01 342.99 C 343.23 345.48 347.64 348.31 349.97 355.03 C 352.31 361.75 352.64 369.73 352.00 378.00 C 351.36 386.27 353.25 393.83 352.00 403.00 C 350.75 412.17 364.89 408.41 364.00 416.00
C 354.61 415.66 346.32 415.05 337.00 416.00
C 338.02 402.29 337.48 387.80 338.00 374.00 C 338.52 360.20 331.61 351.42 317.78 352.78 C 303.95 354.14 299.92 367.74 302.00 380.00 C 304.08 392.26 295.14 414.36 315.00 411.00
C 315.41 419.67 304.41 415.47 297.93 415.07 C 291.45 414.67 281.92 416.81 275.00 416.00
C 273.00 408.10 283.08 412.29 287.00 409.00
C 288.18 398.28 287.92 385.86 288.00 375.00 C 288.08 364.14 290.85 348.67 275.00 353.00
C 275.30 342.16 285.11 349.28 292.68 343.68 C 300.25 338.08 305.13 346.39 301.00 355.00
M 543.00 357.00 
C 550.79 350.05 548.06 345.12 560.03 342.03 C 571.99 338.93 572.09 352.74 570.00 363.00
C 563.31 363.15 559.13 352.26 551.31 357.31 C 543.48 362.35 542.81 366.81 542.00 376.00 C 541.20 385.20 543.07 392.64 542.33 402.67 C 541.59 412.70 557.55 407.70 557.00 416.00
C 542.32 415.42 528.67 415.21 514.00 416.00
C 515.05 407.07 529.60 411.94 528.00 400.00 C 526.40 388.06 528.14 381.16 528.00 370.00 C 527.86 358.84 528.32 349.68 514.00 353.00
C 514.40 340.78 524.27 350.54 533.02 344.02 C 541.78 337.51 543.20 348.88 543.00 357.00
M 616.00 416.00 
C 602.62 415.47 590.36 415.26 577.00 416.00
C 573.69 406.01 588.71 413.53 588.97 405.97 C 589.24 398.41 588.74 392.40 590.00 385.00 C 591.26 377.60 588.72 371.40 589.07 363.93 C 589.43 356.46 586.65 350.11 577.00 353.00
C 577.41 343.13 586.66 348.68 594.07 344.07 C 601.49 339.47 606.29 342.72 604.00 352.00 C 601.71 361.28 606.08 368.21 603.22 377.22 C 600.36 386.23 605.82 392.54 604.00 402.00 C 602.18 411.46 617.72 407.14 616.00 416.00 Z"/>
</g>
<g fill="None" fill-opacity="0.0" stroke="#A90000" stroke-opacity="0.93" stroke-width="0.3"><path d="
M 177.00 71.00 
C 185.39 62.79 195.77 54.68 204.75 47.75 C 213.73 40.82 225.97 26.12 214.75 16.25 C 203.53 6.38 197.40 23.59 186.25 30.25 C 175.09 36.91 175.83 58.66 177.00 71.00 Z"/>
</g>
<g fill="None" fill-opacity="0.0" stroke="#A90000" stroke-opacity="0.94" stroke-width="0.3"><path d="
M 112.00 70.00 
C 111.11 60.66 114.14 45.19 109.75 37.25 C 105.37 29.31 99.32 24.01 92.07 19.93 C 84.83 15.84 69.19 15.02 62.70 19.70 C 56.21 24.38 70.88 31.98 74.23 37.77 C 77.58 43.56 86.20 50.10 91.25 55.75 C 96.29 61.40 104.68 67.94 112.00 70.00 Z"/>
</g>
<g fill="None" fill-opacity="0.0" stroke="#AA0000" stroke-opacity="0.94" stroke-width="0.3"><path d="
M 198.00 102.00 
C 200.34 94.66 207.62 88.65 213.25 83.25 C 218.88 77.85 225.84 73.44 231.75 68.75 C 237.67 64.07 243.96 55.90 247.00 50.00 C 250.04 44.10 242.86 26.08 236.75 28.75 C 230.65 31.43 227.19 42.00 220.25 45.25 C 213.30 48.50 208.02 56.10 201.08 60.08 C 194.14 64.07 189.79 69.93 184.25 76.25 C 178.70 82.57 174.88 92.82 177.00 102.00
C 184.00 102.00 191.00 102.00 198.00 102.00 Z"/>
</g>
<g fill="None" fill-opacity="0.0" stroke="#AA0000" stroke-opacity="0.94" stroke-width="0.3"><path d="
M 112.00 102.00 
C 113.64 92.64 112.54 81.99 104.23 78.77 C 95.92 75.55 94.00 69.34 87.75 64.25 C 81.50 59.16 78.11 54.09 72.25 48.75 C 66.38 43.41 61.16 38.23 53.00 37.00 C 44.84 35.77 36.24 40.20 30.00 45.00
C 58.70 61.31 73.58 105.56 112.00 102.00 Z"/>
</g>
<g fill="None" fill-opacity="0.0" stroke="#A90000" stroke-opacity="0.94" stroke-width="0.3"><path d="
M 265.00 55.00 
C 245.45 66.87 223.33 81.53 211.00 102.00
C 226.99 102.72 245.26 103.87 257.25 93.25 C 269.24 82.63 273.02 68.86 265.00 55.00 Z"/>
</g>
<g fill="None" fill-opacity="0.0" stroke="#AA0000" stroke-opacity="0.92" stroke-width="0.3"><path d="
M 77.00 102.00 
C 70.96 94.72 63.75 87.51 56.75 80.25 C 49.75 72.98 43.03 65.25 33.00 63.00 C 22.97 60.75 8.27 71.02 18.75 78.25 C 29.24 85.47 29.47 91.73 39.77 98.23 C 50.07 104.73 64.77 101.15 77.00 102.00 Z"/>
</g>
<g fill="None" fill-opacity="0.0" stroke="#000000" stroke-opacity="0.97" stroke-width="0.3"><path d="
M 440.00 116.00 
C 422.57 113.25 403.95 108.04 383.03 109.03 C 362.11 110.01 352.03 115.39 337.25 123.81 C 322.48 132.23 311.90 147.85 306.76 161.75 C 301.62 175.66 299.08 198.70 303.20 214.75 C 307.32 230.81 315.17 244.37 330.10 255.90 C 345.03 267.44 352.86 269.49 373.25 272.41 C 393.65 275.32 417.07 272.81 433.30 267.64 C 449.52 262.47 446.46 244.06 451.00 227.00
C 445.73 225.69 442.39 230.01 438.00 228.00
C 428.29 244.04 415.04 257.88 397.25 261.20 C 379.45 264.52 361.17 256.97 351.75 243.25 C 342.33 229.54 337.19 212.42 338.07 190.07 C 338.96 167.73 343.16 158.01 351.29 141.30 C 359.41 124.60 380.45 120.13 397.25 123.61 C 414.04 127.09 427.18 138.42 436.00 154.00
C 440.00 154.00 444.00 154.00 448.00 154.00
C 448.37 139.16 441.95 127.69 440.00 116.00 Z"/>
</g>
<g fill="None" fill-opacity="0.0" stroke="#000000" stroke-opacity="0.97" stroke-width="0.3"><path d="
M 701.00 110.00 
C 687.04 110.05 681.92 123.39 687.61 134.25 C 693.29 145.10 709.08 144.45 714.81 134.25 C 720.54 124.06 712.78 109.95 701.00 110.00 Z"/>
</g>
<g fill="None" fill-opacity="0.0" stroke="#000000" stroke-opacity="0.97" stroke-width="0.3"><path d="
M 551.00 116.00 
C 539.92 119.06 528.40 115.05 517.00 116.00
C 515.23 130.09 507.88 141.02 506.00 156.00
C 508.60 154.56 512.39 154.43 515.00 156.00
C 525.38 141.18 539.89 130.00 551.00 116.00 Z"/>
</g>
<g fill="None" fill-opacity="0.0" stroke="#A90000" stroke-opacity="0.78" stroke-width="0.3"><path d="
M 0.00 157.00 
C 0.00 157.00 0.50 157.00 1.00 157.00
C 1.85 147.62 1.19 136.66 0.00 128.00
L 0.00 157.00 Z"/>
</g>
<g fill="None" fill-opacity="0.0" stroke="#000000" stroke-opacity="0.97" stroke-width="0.3"><path d="
M 783.00 148.00 
C 780.33 148.00 777.67 148.00 775.00 148.00
C 770.12 161.72 754.36 176.21 741.00 178.00
C 740.81 181.31 742.72 183.96 741.00 187.00
C 745.68 185.31 750.96 186.22 756.00 186.00
C 758.14 211.81 750.04 245.82 761.20 262.75 C 772.36 279.68 799.25 273.89 810.00 257.00
C 807.61 256.94 805.14 254.33 805.00 252.00
C 796.25 259.27 780.28 261.63 782.67 244.67 C 785.06 227.71 782.40 203.26 782.00 186.00
C 789.94 188.25 799.24 185.14 807.00 187.00
C 808.28 182.83 806.28 178.68 808.00 175.00
C 799.71 173.39 791.74 175.34 783.00 175.00
C 784.18 166.52 782.89 156.36 783.00 148.00 Z"/>
</g>
<g fill="None" fill-opacity="0.0" stroke="#000000" stroke-opacity="0.97" stroke-width="0.3"><path d="
M 625.00 163.00 
C 621.98 160.89 617.98 164.79 615.00 163.00
C 607.76 174.48 597.30 183.14 585.00 183.00
C 586.10 185.16 585.38 186.69 585.00 189.00
C 589.51 191.94 594.19 191.87 599.00 195.00
C 599.43 203.59 599.01 212.20 599.02 221.98 C 599.04 231.75 601.15 247.34 599.20 255.75 C 597.24 264.17 588.16 261.24 582.00 265.00
C 582.68 267.02 582.74 269.06 582.00 271.00
C 605.00 268.81 625.15 270.57 649.00 271.00
C 648.40 268.77 648.37 266.16 649.00 264.00
C 641.78 259.74 628.35 266.35 626.80 255.25 C 625.26 244.15 627.56 227.34 625.99 216.01 C 624.43 204.67 625.96 196.77 633.00 189.00
C 641.29 193.87 653.38 201.41 660.81 192.25 C 668.23 183.09 661.42 168.78 650.22 167.78 C 639.02 166.77 628.79 178.13 626.00 188.00
C 621.90 182.63 624.20 169.85 625.00 163.00 Z"/>
</g>
<g fill="None" fill-opacity="0.0" stroke="#000000" stroke-opacity="0.98" stroke-width="0.3"><path d="
M 714.00 162.00 
C 711.10 163.49 706.91 163.58 704.00 162.00
C 694.47 174.04 683.63 177.15 669.00 177.00
C 669.39 178.71 668.09 185.29 670.00 184.00
C 677.11 186.72 681.37 184.96 687.00 190.00
C 686.04 199.56 688.01 216.68 687.00 227.00 C 685.99 237.32 687.61 250.01 686.13 258.08 C 684.65 266.16 672.57 260.25 667.00 263.00
C 665.57 278.16 683.57 268.06 695.00 270.00 C 706.43 271.94 719.76 269.59 731.00 272.00
C 733.55 259.28 719.85 264.19 713.00 261.00
C 713.81 229.36 713.68 195.00 714.00 162.00 Z"/>
</g>
<g fill="None" fill-opacity="0.0" stroke="#AA0000" stroke-opacity="0.93" stroke-width="0.3"><path d="
M 77.00 164.00 
C 66.88 164.61 51.70 162.47 42.69 165.69 C 33.69 168.92 28.25 174.90 22.75 181.75 C 17.26 188.61 16.01 202.03 21.08 208.92 C 26.15 215.81 35.05 202.67 41.25 199.25 C 47.46 195.84 55.49 188.45 61.25 183.25 C 67.00 178.05 73.90 171.07 77.00 164.00 Z"/>
</g>
<g fill="None" fill-opacity="0.0" stroke="#AA0000" stroke-opacity="0.94" stroke-width="0.3"><path d="
M 111.00 164.00 
C 104.00 164.00 97.00 164.00 90.00 164.00
C 82.49 178.13 69.44 188.52 56.08 198.08 C 42.73 207.65 32.27 227.92 50.00 239.00
C 67.63 211.86 113.54 202.22 111.00 164.00 Z"/>
</g>
<g fill="None" fill-opacity="0.0" stroke="#AA0000" stroke-opacity="0.94" stroke-width="0.3"><path d="
M 260.00 220.00 
C 253.19 216.44 247.83 211.37 242.25 205.75 C 236.66 200.14 232.76 195.73 227.25 189.75 C 221.75 183.77 218.69 178.87 211.23 173.77 C 203.77 168.67 200.40 166.69 190.00 164.00 C 179.60 161.31 175.99 173.55 179.00 184.00
C 194.11 189.78 204.92 202.95 215.75 215.25 C 226.58 227.54 248.17 236.14 260.00 220.00 Z"/>
</g>
<g fill="None" fill-opacity="0.0" stroke="#AA0000" stroke-opacity="0.92" stroke-width="0.3"><path d="
M 213.00 164.00 
C 219.62 171.39 226.51 178.20 233.75 185.25 C 241.00 192.29 247.61 201.37 258.00 203.00 C 268.39 204.62 282.48 195.38 272.25 187.75 C 262.01 180.12 260.80 173.91 250.25 167.75 C 239.69 161.60 225.43 164.59 213.00 164.00 Z"/>
</g>
<g fill="None" fill-opacity="0.0" stroke="#000000" stroke-opacity="0.97" stroke-width="0.3"><path d="
M 1025.00 249.00 
L 1025.00 240.00
C 1023.70 239.00 1023.60 235.69 1024.00 234.00
C 1021.43 221.08 1010.59 214.97 999.75 210.39 C 988.91 205.82 972.85 208.49 964.71 196.30 C 956.58 184.11 973.65 174.66 985.75 177.80 C 997.86 180.94 1005.50 190.52 1009.00 202.00
C 1012.81 200.64 1015.64 202.46 1019.00 201.00
C 1017.69 188.06 1019.49 172.30 1005.25 170.19 C 991.00 168.09 973.91 165.44 961.92 171.87 C 949.93 178.30 943.91 188.46 944.07 202.92 C 944.22 217.38 956.72 225.63 967.77 230.79 C 978.81 235.95 994.84 230.78 1003.61 244.25 C 1012.37 257.71 985.84 271.09 975.30 263.71 C 964.77 256.34 955.28 248.62 951.00 236.00
C 948.12 238.29 944.82 235.61 942.00 237.00
C 945.48 250.66 941.70 265.57 954.90 269.09 C 968.10 272.61 982.79 275.66 996.75 272.80 C 1010.72 269.95 1020.50 260.64 1025.00 249.00 Z"/>
</g>
<g fill="None" fill-opacity="0.0" stroke="#000000" stroke-opacity="0.96" stroke-width="0.3"><path d="
M 566.00 256.00 
C 552.71 254.44 559.94 231.74 558.78 220.22 C 557.61 208.70 558.88 194.42 556.19 185.25 C 553.50 176.09 546.44 170.32 536.25 168.80 C 526.06 167.28 513.82 169.00 505.08 171.94 C 496.35 174.88 489.19 177.93 481.75 184.75 C 474.31 191.58 468.56 201.03 472.00 211.00
C 481.85 208.11 496.52 206.49 497.41 194.75 C 498.30 183.02 509.27 173.40 522.30 176.36 C 535.32 179.33 530.22 199.48 532.00 212.00
C 515.23 215.78 504.37 224.64 488.25 230.81 C 472.14 236.98 464.27 266.23 484.25 271.60 C 504.22 276.98 523.87 269.81 535.00 254.00
C 537.63 263.98 546.34 272.84 557.92 271.93 C 569.50 271.03 573.81 260.59 576.00 252.00
C 574.39 249.42 572.56 250.03 571.00 248.00
C 568.15 250.52 566.41 252.31 566.00 256.00
M 532.00 220.00 
C 532.20 235.74 533.13 252.30 519.70 259.71 C 506.26 267.12 495.78 249.06 503.19 238.75 C 510.60 228.43 522.69 224.23 532.00 220.00 Z"/>
</g>
<g fill="None" fill-opacity="0.0" stroke="#000000" stroke-opacity="0.97" stroke-width="0.3"><path d="
M 914.00 256.00 
C 908.01 236.24 914.99 198.90 908.19 181.25 C 901.40 163.60 872.17 167.29 857.25 171.24 C 842.33 175.20 822.56 192.31 825.00 211.00
C 835.87 209.51 841.85 205.90 851.00 200.00
C 852.12 186.55 854.01 178.08 869.75 176.80 C 885.50 175.52 887.27 195.15 886.00 211.00
C 869.04 216.93 858.75 223.52 841.75 230.74 C 824.75 237.96 817.83 267.45 840.30 271.69 C 862.78 275.94 877.24 268.69 889.00 254.00
C 890.71 264.91 899.68 272.03 910.77 271.79 C 921.86 271.54 926.38 261.70 930.00 253.00
C 928.93 251.37 925.61 250.73 926.00 248.00
C 920.47 248.72 921.18 252.95 919.00 256.00
C 917.20 255.25 915.72 255.12 914.00 256.00
M 885.00 220.00 
C 886.98 237.68 886.88 250.86 873.25 258.39 C 859.61 265.92 849.59 248.77 857.26 238.25 C 864.93 227.73 874.78 225.25 885.00 220.00 Z"/>
</g>
<g fill="None" fill-opacity="0.0" stroke="#AA0000" stroke-opacity="0.93" stroke-width="0.3"><path d="
M 111.00 196.00 
C 101.82 203.19 92.16 212.22 82.75 218.75 C 73.35 225.28 62.24 241.58 73.25 250.75 C 84.25 259.92 90.50 242.77 101.75 236.75 C 113.00 230.73 111.88 207.56 111.00 196.00 Z"/>
</g>
<g fill="None" fill-opacity="0.0" stroke="#AA0000" stroke-opacity="0.93" stroke-width="0.3"><path d="
M 230.00 246.00 
C 225.97 235.39 215.50 227.24 207.75 218.25 C 200.00 209.26 190.01 201.57 180.00 196.00
C 176.89 211.28 177.48 227.97 189.25 238.75 C 201.01 249.53 215.29 251.99 230.00 246.00 Z"/>
</g>
<g fill="None" fill-opacity="0.0" stroke="#000000" stroke-opacity="0.03" stroke-width="0.3"><path d="
M 532.00 220.00 
C 522.69 224.23 510.60 228.43 503.19 238.75 C 495.78 249.06 506.26 267.12 519.70 259.71 C 533.13 252.30 532.20 235.74 532.00 220.00 Z"/>
</g>
<g fill="None" fill-opacity="0.0" stroke="#000000" stroke-opacity="0.04" stroke-width="0.3"><path d="
M 885.00 220.00 
C 874.78 225.25 864.93 227.73 857.26 238.25 C 849.59 248.77 859.61 265.92 873.25 258.39 C 886.88 250.86 886.98 237.68 885.00 220.00 Z"/>
</g>
<g fill="None" fill-opacity="0.0" stroke="#000000" stroke-opacity="0.67" stroke-width="0.3"><path d="
M 1025.00 240.00 
L 1025.00 234.00
C 1025.00 234.00 1024.03 234.12 1024.00 234.00
C 1023.60 235.69 1023.70 239.00 1025.00 240.00 Z"/>
</g>
<g fill="None" fill-opacity="0.0" stroke="#B76C50" stroke-opacity="0.90" stroke-width="0.3"><path d="
M 852.00 417.00 
L 869.00 417.00
C 890.16 407.73 907.51 386.76 900.93 362.07 C 894.34 337.38 860.73 335.77 847.00 356.00
C 846.91 337.90 846.79 319.77 848.00 302.00
C 842.44 302.11 836.87 304.54 831.67 305.67 C 826.47 306.81 817.85 305.25 820.00 313.00
C 823.67 313.00 827.33 313.00 831.00 313.00
C 835.04 346.26 832.90 382.29 832.00 416.00
C 835.72 416.44 839.02 413.91 841.00 411.00
C 844.28 413.65 848.67 414.98 852.00 417.00
M 870.00 352.00 
C 889.77 354.47 890.52 380.14 884.68 395.68 C 878.84 411.21 849.87 413.17 847.00 395.00 C 844.13 376.82 846.28 349.04 870.00 352.00 Z"/>
</g>
<g fill="None" fill-opacity="0.0" stroke="#B66C50" stroke-opacity="0.93" stroke-width="0.3"><path d="
M 1025.00 416.00 
L 1025.00 411.00
C 1008.56 412.14 1012.26 394.51 1012.00 382.00 C 1011.74 369.49 1011.83 353.84 1012.00 341.00 C 1012.17 328.16 1013.08 314.71 1014.00 302.00
C 1008.53 301.91 1003.08 304.94 998.00 306.00 C 992.92 307.06 984.24 305.16 986.00 313.00
C 998.46 309.46 997.66 318.08 998.22 326.78 C 998.78 335.48 998.92 343.02 999.00 352.00 C 999.08 360.98 998.24 368.81 999.00 378.00 C 999.76 387.19 996.99 393.43 998.00 403.00 C 999.01 412.57 985.00 406.98 986.00 416.00
C 999.42 415.89 1011.74 414.85 1025.00 416.00 Z"/>
</g>
<g fill="None" fill-opacity="0.0" stroke="#B76C4F" stroke-opacity="0.89" stroke-width="0.3"><path d="
M 135.00 417.00 
L 159.00 417.00
C 182.26 416.13 203.49 385.35 189.92 365.08 C 176.35 344.81 131.90 364.01 130.02 334.02 C 128.15 304.03 185.59 306.78 179.00 334.00
C 191.26 335.58 183.37 318.62 188.00 312.00
C 178.17 308.05 167.78 306.26 157.00 306.00 C 146.22 305.74 136.43 307.97 128.23 314.23 C 120.03 320.49 116.35 329.01 116.00 339.00 C 115.65 348.99 119.51 359.11 128.92 363.08 C 138.34 367.04 149.95 367.18 159.93 368.07 C 169.90 368.96 179.65 374.01 180.00 385.00 C 180.35 395.99 175.55 402.72 165.22 407.22 C 154.89 411.72 145.66 409.54 134.08 406.92 C 122.49 404.31 128.94 385.97 118.00 387.00
C 117.88 395.38 118.54 403.99 117.00 412.00
C 123.06 413.29 129.38 415.35 135.00 417.00 Z"/>
</g>
<g fill="None" fill-opacity="0.0" stroke="#B76C50" stroke-opacity="0.90" stroke-width="0.3"><path d="
M 457.00 417.00 
L 483.00 417.00
C 490.20 412.23 504.83 415.58 508.23 405.23 C 511.63 394.88 497.34 405.86 489.02 407.02 C 480.71 408.19 465.59 410.10 457.08 405.92 C 448.56 401.75 441.40 398.12 435.75 390.25 C 430.10 382.38 425.73 373.49 425.33 363.67 C 424.93 353.85 425.62 341.42 431.25 333.25 C 436.87 325.07 442.15 320.38 451.32 316.32 C 460.49 312.26 472.88 312.70 482.98 315.02 C 493.07 317.35 503.45 322.86 499.00 336.00
C 510.98 336.95 504.37 319.23 509.00 312.00
C 476.57 299.83 429.33 303.21 412.92 337.92 C 396.51 372.64 421.05 412.04 457.00 417.00 Z"/>
</g>
<g fill="None" fill-opacity="0.0" stroke="#B76C4F" stroke-opacity="0.86" stroke-width="0.3"><path d="
M 600.00 308.00 
C 588.93 304.84 581.71 319.51 592.78 325.22 C 603.84 330.93 610.61 311.03 600.00 308.00 Z"/>
</g>
<g fill="None" fill-opacity="0.0" stroke="#B86C4F" stroke-opacity="0.81" stroke-width="0.3"><path d="
M 762.00 337.00 
C 775.61 335.75 777.60 329.82 790.30 323.30 C 803.01 316.79 790.28 304.91 782.25 316.25 C 774.22 327.58 768.33 326.40 762.00 337.00 Z"/>
</g>
<g fill="None" fill-opacity="0.0" stroke="#B76C4F" stroke-opacity="0.91" stroke-width="0.3"><path d="
M 709.00 417.00 
L 723.00 417.00
C 726.88 414.55 735.85 408.21 731.00 403.00
C 721.60 411.95 711.52 403.62 713.00 392.00 C 714.48 380.38 711.89 367.71 713.00 356.00
C 720.45 354.58 736.55 360.80 734.00 348.00
C 727.00 348.00 720.00 348.00 713.00 348.00
C 712.55 338.90 714.15 333.29 714.00 324.00 C 713.85 314.72 704.30 323.41 699.00 324.00
C 699.00 332.33 699.00 340.67 699.00 349.00
C 694.53 350.99 685.53 351.31 687.00 358.00
C 690.92 357.23 694.81 356.67 699.00 357.00
C 702.69 376.41 689.98 404.80 709.00 417.00 Z"/>
</g>
<g fill="None" fill-opacity="0.0" stroke="#B76D4F" stroke-opacity="0.90" stroke-width="0.3"><path d="
M 301.00 355.00 
C 305.13 346.39 300.25 338.08 292.68 343.68 C 285.11 349.28 275.30 342.16 275.00 353.00
C 290.85 348.67 288.08 364.14 288.00 375.00 C 287.92 385.86 288.18 398.28 287.00 409.00
C 283.08 412.29 273.00 408.10 275.00 416.00
C 281.92 416.81 291.45 414.67 297.93 415.07 C 304.41 415.47 315.41 419.67 315.00 411.00
C 295.14 414.36 304.08 392.26 302.00 380.00 C 299.92 367.74 303.95 354.14 317.78 352.78 C 331.61 351.42 338.52 360.20 338.00 374.00 C 337.48 387.80 338.02 402.29 337.00 416.00
C 346.32 415.05 354.61 415.66 364.00 416.00
C 364.89 408.41 350.75 412.17 352.00 403.00 C 353.25 393.83 351.36 386.27 352.00 378.00 C 352.64 369.73 352.31 361.75 349.97 355.03 C 347.64 348.31 343.23 345.48 337.01 342.99 C 330.78 340.51 320.94 341.83 315.08 344.08 C 309.22 346.33 306.81 352.67 301.00 355.00 Z"/>
</g>
<g fill="None" fill-opacity="0.0" stroke="#B66D50" stroke-opacity="0.89" stroke-width="0.3"><path d="
M 543.00 357.00 
C 543.20 348.88 541.78 337.51 533.02 344.02 C 524.27 350.54 514.40 340.78 514.00 353.00
C 528.32 349.68 527.86 358.84 528.00 370.00 C 528.14 381.16 526.40 388.06 528.00 400.00 C 529.60 411.94 515.05 407.07 514.00 416.00
C 528.67 415.21 542.32 415.42 557.00 416.00
C 557.55 407.70 541.59 412.70 542.33 402.67 C 543.07 392.64 541.20 385.20 542.00 376.00 C 542.81 366.81 543.48 362.35 551.31 357.31 C 559.13 352.26 563.31 363.15 570.00 363.00
C 572.09 352.74 571.99 338.93 560.03 342.03 C 548.06 345.12 550.79 350.05 543.00 357.00 Z"/>
</g>
<g fill="None" fill-opacity="0.0" stroke="#B66D50" stroke-opacity="0.91" stroke-width="0.3"><path d="
M 616.00 416.00 
C 617.72 407.14 602.18 411.46 604.00 402.00 C 605.82 392.54 600.36 386.23 603.22 377.22 C 606.08 368.21 601.71 361.28 604.00 352.00 C 606.29 342.72 601.49 339.47 594.07 344.07 C 586.66 348.68 577.41 343.13 577.00 353.00
C 586.65 350.11 589.43 356.46 589.07 363.93 C 588.72 371.40 591.26 377.60 590.00 385.00 C 588.74 392.40 589.24 398.41 588.97 405.97 C 588.71 413.53 573.69 406.01 577.00 416.00
C 590.36 415.26 602.62 415.47 616.00 416.00 Z"/>
</g>
<g fill="None" fill-opacity="0.0" stroke="#B76C4F" stroke-opacity="0.88" stroke-width="0.3"><path d="
M 213.00 417.00 
L 228.00 417.00
C 234.13 413.33 239.51 407.53 246.00 404.00
C 246.00 408.00 246.00 412.00 246.00 416.00
C 253.93 412.68 271.42 421.93 271.00 410.00
C 268.00 410.00 265.00 410.00 262.00 410.00
C 258.29 399.42 260.48 385.20 260.00 374.00 C 259.52 362.80 259.82 352.32 250.23 345.77 C 240.64 339.22 228.77 342.46 219.08 345.08 C 209.39 347.69 198.16 360.82 212.00 364.00
C 213.26 342.22 249.79 348.76 246.00 370.00
C 232.97 373.13 216.89 372.82 206.75 382.75 C 196.62 392.68 199.14 412.61 213.00 417.00
M 246.00 376.00 
C 254.19 390.58 232.42 418.82 218.10 403.90 C 203.78 388.97 233.66 374.18 246.00 376.00 Z"/>
</g>
<g fill="None" fill-opacity="0.0" stroke="#B76D50" stroke-opacity="0.88" stroke-width="0.3"><path d="
M 635.00 417.00 
L 657.00 417.00
C 664.14 414.65 671.70 411.10 676.23 404.23 C 680.76 397.35 681.20 386.75 675.75 380.25 C 670.31 373.74 660.17 373.74 653.07 371.93 C 645.98 370.12 633.47 367.50 636.68 357.68 C 639.89 347.86 648.64 347.62 657.78 349.22 C 666.92 350.82 666.11 364.52 674.00 364.00
C 674.57 358.07 672.81 351.51 675.00 346.00
C 666.16 342.28 654.78 341.22 646.02 342.02 C 637.26 342.83 629.89 347.46 626.31 355.31 C 622.73 363.16 623.63 373.94 631.25 378.75 C 638.87 383.55 648.18 384.33 656.78 386.22 C 665.37 388.12 672.31 396.65 664.75 404.75 C 657.19 412.85 650.77 410.78 640.07 408.93 C 629.38 407.07 633.94 392.16 625.00 392.00
C 625.70 399.59 623.96 406.59 624.00 414.00
C 627.56 415.25 631.91 415.35 635.00 417.00 Z"/>
</g>
<g fill="None" fill-opacity="0.0" stroke="#B76C50" stroke-opacity="0.89" stroke-width="0.3"><path d="
M 766.00 417.00 
L 784.00 417.00
C 809.20 411.94 822.77 381.24 810.31 358.70 C 797.84 336.15 761.99 336.51 747.25 356.25 C 732.52 376.00 740.31 411.24 766.00 417.00
M 779.00 348.00 
C 808.74 352.25 805.39 415.98 775.33 410.67 C 745.27 405.36 748.45 343.64 779.00 348.00 Z"/>
</g>
<g fill="None" fill-opacity="0.0" stroke="#B76C4F" stroke-opacity="0.89" stroke-width="0.3"><path d="
M 922.00 417.00 
L 938.00 417.00
C 943.68 412.67 949.58 407.22 956.00 404.00
C 956.00 408.00 956.00 412.00 956.00 416.00
C 963.65 412.58 980.65 421.83 980.00 410.00
C 968.03 413.42 970.10 401.65 970.00 394.00 C 969.90 386.35 968.46 377.77 969.00 370.00 C 969.54 362.23 968.89 355.70 964.25 349.75 C 959.60 343.81 952.88 342.97 946.00 342.00 C 939.12 341.03 931.05 343.90 925.70 346.70 C 920.34 349.49 910.78 354.01 916.08 361.92 C 921.39 369.82 922.92 353.55 928.31 352.31 C 933.69 351.06 942.18 349.21 947.75 353.25 C 953.32 357.28 955.39 363.25 956.00 370.00
C 942.97 373.13 925.83 372.77 915.77 382.77 C 905.71 392.77 908.75 412.26 922.00 417.00
M 956.00 376.00 
C 964.35 390.71 941.57 418.89 927.25 403.75 C 912.93 388.61 943.61 373.95 956.00 376.00 Z"/>
</g>
<g fill="None" fill-opacity="0.0" stroke="#000000" stroke-opacity="0.00" stroke-width="0.3"><path d="
M 779.00 348.00 
C 748.45 343.64 745.27 405.36 775.33 410.67 C 805.39 415.98 808.74 352.25 779.00 348.00 Z"/>
</g>
<g fill="None" fill-opacity="0.0" stroke="#000000" stroke-opacity="0.00" stroke-width="0.3"><path d="
M 870.00 352.00 
C 846.28 349.04 844.13 376.82 847.00 395.00 C 849.87 413.17 878.84 411.21 884.68 395.68 C 890.52 380.14 889.77 354.47 870.00 352.00 Z"/>
</g>
<g fill="None" fill-opacity="0.0" stroke="#000000" stroke-opacity="0.00" stroke-width="0.3"><path d="
M 246.00 376.00 
C 233.66 374.18 203.78 388.97 218.10 403.90 C 232.42 418.82 254.19 390.58 246.00 376.00 Z"/>
</g>
<g fill="None" fill-opacity="0.0" stroke="#000000" stroke-opacity="0.00" stroke-width="0.3"><path d="
M 956.00 376.00 
C 943.61 373.95 912.93 388.61 927.25 403.75 C 941.57 418.89 964.35 390.71 956.00 376.00 Z"/>
</g>
<g fill="#000000" fill-opacity="0.00" stroke="None">
<path d="
M 0.00 109.00 
C 39.67 109.00 79.33 109.00 119.00 109.00
C 119.00 72.67 119.00 36.33 119.00 0.00
L 0.00 0.00
L 0.00 109.00
M 112.00 70.00 
C 104.68 67.94 96.29 61.40 91.25 55.75 C 86.20 50.10 77.58 43.56 74.23 37.77 C 70.88 31.98 56.21 24.38 62.70 19.70 C 69.19 15.02 84.83 15.84 92.07 19.93 C 99.32 24.01 105.37 29.31 109.75 37.25 C 114.14 45.19 111.11 60.66 112.00 70.00
M 112.00 102.00 
C 73.58 105.56 58.70 61.31 30.00 45.00
C 36.24 40.20 44.84 35.77 53.00 37.00 C 61.16 38.23 66.38 43.41 72.25 48.75 C 78.11 54.09 81.50 59.16 87.75 64.25 C 94.00 69.34 95.92 75.55 104.23 78.77 C 112.54 81.99 113.64 92.64 112.00 102.00
M 77.00 102.00 
C 64.77 101.15 50.07 104.73 39.77 98.23 C 29.47 91.73 29.24 85.47 18.75 78.25 C 8.27 71.02 22.97 60.75 33.00 63.00 C 43.03 65.25 49.75 72.98 56.75 80.25 C 63.75 87.51 70.96 94.72 77.00 102.00 Z"/>
</g>
<g fill="#AA0000" fill-opacity="0.98" stroke="None">
<path d="
M 0.00 109.00 
L 0.00 128.00
C 1.19 136.66 1.85 147.62 1.00 157.00
C 40.32 156.99 79.45 158.83 119.00 158.00
C 119.00 197.00 119.00 236.00 119.00 275.00
C 136.33 275.00 153.67 275.00 171.00 275.00
C 171.00 236.00 171.00 197.00 171.00 158.00
C 211.00 158.00 251.00 158.00 291.00 158.00
C 291.00 141.67 291.00 125.33 291.00 109.00
C 250.93 108.93 210.72 109.46 171.00 108.00
C 171.00 72.00 171.00 36.00 171.00 0.00
L 119.00 0.00
C 119.00 36.33 119.00 72.67 119.00 109.00
C 79.33 109.00 39.67 109.00 0.00 109.00 Z"/>
</g>
<g fill="#000000" fill-opacity="0.00" stroke="None">
<path d="
M 1.00 157.00 
C 0.50 157.00 0.00 157.00 0.00 157.00
L 0.00 417.00
L 135.00 417.00
C 129.38 415.35 123.06 413.29 117.00 412.00
C 118.54 403.99 117.88 395.38 118.00 387.00
C 128.94 385.97 122.49 404.31 134.08 406.92 C 145.66 409.54 154.89 411.72 165.22 407.22 C 175.55 402.72 180.35 395.99 180.00 385.00 C 179.65 374.01 169.90 368.96 159.93 368.07 C 149.95 367.18 138.34 367.04 128.92 363.08 C 119.51 359.11 115.65 348.99 116.00 339.00 C 116.35 329.01 120.03 320.49 128.23 314.23 C 136.43 307.97 146.22 305.74 157.00 306.00 C 167.78 306.26 178.17 308.05 188.00 312.00
C 183.37 318.62 191.26 335.58 179.00 334.00
C 185.59 306.78 128.15 304.03 130.02 334.02 C 131.90 364.01 176.35 344.81 189.92 365.08 C 203.49 385.35 182.26 416.13 159.00 417.00
L 213.00 417.00
C 199.14 412.61 196.62 392.68 206.75 382.75 C 216.89 372.82 232.97 373.13 246.00 370.00
C 249.79 348.76 213.26 342.22 212.00 364.00
C 198.16 360.82 209.39 347.69 219.08 345.08 C 228.77 342.46 240.64 339.22 250.23 345.77 C 259.82 352.32 259.52 362.80 260.00 374.00 C 260.48 385.20 258.29 399.42 262.00 410.00
C 265.00 410.00 268.00 410.00 271.00 410.00
C 271.42 421.93 253.93 412.68 246.00 416.00
C 246.00 412.00 246.00 408.00 246.00 404.00
C 239.51 407.53 234.13 413.33 228.00 417.00
L 457.00 417.00
C 421.05 412.04 396.51 372.64 412.92 337.92 C 429.33 303.21 476.57 299.83 509.00 312.00
C 504.37 319.23 510.98 336.95 499.00 336.00
C 503.45 322.86 493.07 317.35 482.98 315.02 C 472.88 312.70 460.49 312.26 451.32 316.32 C 442.15 320.38 436.87 325.07 431.25 333.25 C 425.62 341.42 424.93 353.85 425.33 363.67 C 425.73 373.49 430.10 382.38 435.75 390.25 C 441.40 398.12 448.56 401.75 457.08 405.92 C 465.59 410.10 480.71 408.19 489.02 407.02 C 497.34 405.86 511.63 394.88 508.23 405.23 C 504.83 415.58 490.20 412.23 483.00 417.00
L 635.00 417.00
C 631.91 415.35 627.56 415.25 624.00 414.00
C 623.96 406.59 625.70 399.59 625.00 392.00
C 633.94 392.16 629.38 407.07 640.07 408.93 C 650.77 410.78 657.19 412.85 664.75 404.75 C 672.31 396.65 665.37 388.12 656.78 386.22 C 648.18 384.33 638.87 383.55 631.25 378.75 C 623.63 373.94 622.73 363.16 626.31 355.31 C 629.89 347.46 637.26 342.83 646.02 342.02 C 654.78 341.22 666.16 342.28 674.07 345.93
C 672.81 351.51 674.57 358.07 674.00 364.00
C 666.11 364.52 666.92 350.82 657.78 349.22 C 648.64 347.62 639.89 347.86 636.68 357.68 C 633.47 367.50 645.98 370.12 653.07 371.93 C 660.17 373.74 670.31 373.74 675.75 380.25 C 681.20 386.75 680.76 397.35 676.23 404.23 C 671.70 411.10 664.14 414.65 657.00 417.00
L 709.00 417.00
C 689.98 404.80 702.69 376.41 699.00 357.00
C 694.81 356.67 690.92 357.23 687.00 358.00
C 685.53 351.31 694.53 350.99 699.00 349.00
C 699.00 340.67 699.00 332.33 699.00 324.00
C 704.30 323.41 713.85 314.72 714.00 324.00 C 714.15 333.29 712.55 338.90 713.00 348.00
C 720.00 348.00 727.00 348.00 734.00 348.00
C 736.55 360.80 720.45 354.58 713.00 356.00
C 711.89 367.71 714.48 380.38 713.00 392.00 C 711.52 403.62 721.60 411.95 731.00 403.00
C 735.85 408.21 726.88 414.55 723.00 417.00
L 766.00 417.00
C 740.31 411.24 732.52 376.00 747.25 356.25 C 761.99 336.51 797.84 336.15 810.31 358.70 C 822.77 381.24 809.20 411.94 784.00 417.00
L 852.00 417.00
C 848.67 414.98 844.28 413.65 841.00 411.00
C 839.02 413.91 835.72 416.44 832.00 416.00
C 832.90 382.29 835.04 346.26 831.00 313.00
C 827.33 313.00 823.67 313.00 820.00 313.00
C 817.85 305.25 826.47 306.81 831.67 305.67 C 836.87 304.54 842.44 302.11 848.00 302.00
C 846.79 319.77 846.91 337.90 847.00 356.00
C 860.73 335.77 894.34 337.38 900.93 362.07 C 907.51 386.76 890.16 407.73 869.00 417.00
L 922.00 417.00
C 908.75 412.26 905.71 392.77 915.77 382.77 C 925.83 372.77 942.97 373.13 956.00 370.00
C 955.39 363.25 953.32 357.28 947.75 353.25 C 942.18 349.21 933.69 351.06 928.31 352.31 C 922.92 353.55 921.39 369.82 916.08 361.92 C 910.78 354.01 920.34 349.49 925.70 346.70 C 931.05 343.90 939.12 341.03 946.00 342.00 C 952.88 342.97 959.60 343.81 964.25 349.75 C 968.89 355.70 969.54 362.23 969.00 370.00 C 968.46 377.77 969.90 386.35 970.00 394.00 C 970.10 401.65 968.03 413.42 980.00 410.00
C 980.65 421.83 963.65 412.58 956.00 416.00
C 956.00 412.00 956.00 408.00 956.00 404.00
C 949.58 407.22 943.68 412.67 938.00 417.00
L 1025.00 417.00
L 1025.00 416.00
C 1011.74 414.85 999.42 415.89 986.00 416.00
C 985.00 406.98 999.01 412.57 998.00 403.00 C 996.99 393.43 999.76 387.19 999.00 378.00 C 998.24 368.81 999.08 360.98 999.00 352.00 C 998.92 343.02 998.78 335.48 998.22 326.78 C 997.66 318.08 998.46 309.46 986.00 313.00
C 984.24 305.16 992.92 307.06 998.00 306.00 C 1003.08 304.94 1008.53 301.91 1014.00 302.00
C 1013.08 314.71 1012.17 328.16 1012.00 341.00 C 1011.83 353.84 1011.74 369.49 1012.00 382.00 C 1012.26 394.51 1008.56 412.14 1025.00 411.00
L 1025.00 249.00
C 1020.50 260.64 1010.72 269.95 996.75 272.80 C 982.79 275.66 968.10 272.61 954.90 269.09 C 941.70 265.57 945.48 250.66 942.00 237.00
C 944.82 235.61 948.12 238.29 951.00 236.00
C 955.28 248.62 964.77 256.34 975.30 263.71 C 985.84 271.09 1012.37 257.71 1003.61 244.25 C 994.84 230.78 978.81 235.95 967.77 230.79 C 956.72 225.63 944.22 217.38 944.07 202.92 C 943.91 188.46 949.93 178.30 961.92 171.87 C 973.91 165.44 991.00 168.09 1005.25 170.19 C 1019.49 172.30 1017.69 188.06 1018.79 200.23
C 1015.64 202.46 1012.81 200.64 1009.00 202.00
C 1005.50 190.52 997.86 180.94 985.75 177.80 C 973.65 174.66 956.58 184.11 964.71 196.30 C 972.85 208.49 988.91 205.82 999.75 210.39 C 1010.59 214.97 1021.43 221.08 1024.00 234.00
C 1024.03 234.12 1025.00 234.00 1025.00 234.00
L 1025.00 0.00
L 171.00 0.00
C 171.00 36.00 171.00 72.00 171.00 108.00
C 210.72 109.46 250.93 108.93 291.00 109.00
C 291.00 125.33 291.00 141.67 291.00 158.00
C 251.00 158.00 211.00 158.00 171.00 158.00
C 171.00 197.00 171.00 236.00 171.00 275.00
C 153.67 275.00 136.33 275.00 119.00 275.00
C 119.00 236.00 119.00 197.00 119.00 158.00
C 79.45 158.83 40.32 156.99 1.00 157.00
M 177.00 71.00 
C 175.83 58.66 175.09 36.91 186.25 30.25 C 197.40 23.59 203.53 6.38 214.75 16.25 C 225.97 26.12 213.73 40.82 204.75 47.75 C 195.77 54.68 185.39 62.79 177.00 71.00
M 198.00 102.00 
C 191.00 102.00 184.00 102.00 177.00 102.00
C 174.88 92.82 178.70 82.57 184.25 76.25 C 189.79 69.93 194.14 64.07 201.08 60.08 C 208.02 56.10 213.30 48.50 220.25 45.25 C 227.19 42.00 230.65 31.43 236.75 28.75 C 242.86 26.08 250.04 44.10 247.00 50.00 C 243.96 55.90 237.67 64.07 231.75 68.75 C 225.84 73.44 218.88 77.85 213.25 83.25 C 207.62 88.65 200.34 94.66 198.00 102.00
M 265.00 55.00 
C 273.02 68.86 269.24 82.63 257.25 93.25 C 245.26 103.87 226.99 102.72 211.00 102.00
C 223.33 81.53 245.45 66.87 265.00 55.00
M 440.00 116.00 
C 441.95 127.69 448.37 139.16 448.00 154.00
C 444.00 154.00 440.00 154.00 436.00 154.00
C 427.18 138.42 414.04 127.09 397.25 123.61 C 380.45 120.13 359.41 124.60 351.29 141.30 C 343.16 158.01 338.96 167.73 338.07 190.07 C 337.19 212.42 342.33 229.54 351.75 243.25 C 361.17 256.97 379.45 264.52 397.25 261.20 C 415.04 257.88 428.29 244.04 438.00 228.00
C 442.39 230.01 445.73 225.69 451.00 227.00
C 446.46 244.06 449.52 262.47 433.30 267.64 C 417.07 272.81 393.65 275.32 373.25 272.41 C 352.86 269.49 345.03 267.44 330.10 255.90 C 315.17 244.37 307.32 230.81 303.20 214.75 C 299.08 198.70 301.62 175.66 306.76 161.75 C 311.90 147.85 322.48 132.23 337.25 123.81 C 352.03 115.39 362.11 110.01 383.03 109.03 C 403.95 108.04 422.57 113.25 440.00 116.00
M 701.00 110.00 
C 712.78 109.95 720.54 124.06 714.81 134.25 C 709.08 144.45 693.29 145.10 687.61 134.25 C 681.92 123.39 687.04 110.05 701.00 110.00
M 551.00 116.00 
C 539.89 130.00 525.38 141.18 515.00 156.00
C 512.39 154.43 508.60 154.56 506.00 156.00
C 507.88 141.02 515.23 130.09 517.00 116.00
C 528.40 115.05 539.92 119.06 551.00 116.00
M 783.00 148.00 
C 782.89 156.36 784.18 166.52 783.00 175.00
C 791.74 175.34 799.71 173.39 808.00 175.00
C 806.28 178.68 808.28 182.83 807.00 187.00
C 799.24 185.14 789.94 188.25 782.00 186.00
C 782.40 203.26 785.06 227.71 782.67 244.67 C 780.28 261.63 796.25 259.27 805.00 252.00
C 805.14 254.33 807.61 256.94 810.00 257.00
C 799.25 273.89 772.36 279.68 761.20 262.75 C 750.04 245.82 758.14 211.81 756.00 186.00
C 750.96 186.22 745.68 185.31 741.00 187.00
C 742.72 183.96 740.81 181.31 741.00 178.00
C 754.36 176.21 770.12 161.72 775.00 148.00
C 777.67 148.00 780.33 148.00 783.00 148.00
M 625.00 163.00 
C 624.20 169.85 621.90 182.63 626.00 188.00
C 628.79 178.13 639.02 166.77 650.22 167.78 C 661.42 168.78 668.23 183.09 660.81 192.25 C 653.38 201.41 641.29 193.87 633.00 189.00
C 625.96 196.77 624.43 204.67 625.99 216.01 C 627.56 227.34 625.26 244.15 626.80 255.25 C 628.35 266.35 641.78 259.74 649.00 264.00
C 648.37 266.16 648.40 268.77 649.00 271.00
C 625.15 270.57 605.00 268.81 582.00 271.00
C 582.74 269.06 582.68 267.02 582.00 265.00
C 588.16 261.24 597.24 264.17 599.20 255.75 C 601.15 247.34 599.04 231.75 599.02 221.98 C 599.01 212.20 599.43 203.59 599.00 195.00
C 594.19 191.87 589.51 191.94 585.00 189.00
C 585.38 186.69 586.10 185.16 585.00 183.00
C 597.30 183.14 607.76 174.48 615.00 163.00
C 617.98 164.79 621.98 160.89 625.00 163.00
M 714.00 162.00 
C 713.68 195.00 713.81 229.36 713.00 261.00
C 719.85 264.19 733.55 259.28 731.00 272.00
C 719.76 269.59 706.43 271.94 695.00 270.00 C 683.57 268.06 665.57 278.16 667.00 263.00
C 672.57 260.25 684.65 266.16 686.13 258.08 C 687.61 250.01 685.99 237.32 687.00 227.00 C 688.01 216.68 686.04 199.56 687.00 190.00
C 681.37 184.96 677.11 186.72 670.00 184.00
C 668.09 185.29 669.39 178.71 669.00 177.00
C 683.63 177.15 694.47 174.04 704.00 162.00
C 706.91 163.58 711.10 163.49 714.00 162.00
M 77.00 164.00 
C 73.90 171.07 67.00 178.05 61.25 183.25 C 55.49 188.45 47.46 195.84 41.25 199.25 C 35.05 202.67 26.15 215.81 21.08 208.92 C 16.01 202.03 17.26 188.61 22.75 181.75 C 28.25 174.90 33.69 168.92 42.69 165.69 C 51.70 162.47 66.88 164.61 77.00 164.00
M 111.00 164.00 
C 113.54 202.22 67.63 211.86 50.00 239.00
C 32.27 227.92 42.73 207.65 56.08 198.08 C 69.44 188.52 82.49 178.13 90.00 164.00
C 97.00 164.00 104.00 164.00 111.00 164.00
M 260.00 220.00 
C 248.17 236.14 226.58 227.54 215.75 215.25 C 204.92 202.95 194.11 189.78 179.00 184.00
C 175.99 173.55 179.60 161.31 190.00 164.00 C 200.40 166.69 203.77 168.67 211.23 173.77 C 218.69 178.87 221.75 183.77 227.25 189.75 C 232.76 195.73 236.66 200.14 242.25 205.75 C 247.83 211.37 253.19 216.44 260.00 220.00
M 213.00 164.00 
C 225.43 164.59 239.69 161.60 250.25 167.75 C 260.80 173.91 262.01 180.12 272.25 187.75 C 282.48 195.38 268.39 204.62 258.00 203.00 C 247.61 201.37 241.00 192.29 233.75 185.25 C 226.51 178.20 219.62 171.39 213.00 164.00
M 566.00 256.00 
C 566.41 252.31 568.15 250.52 571.00 248.00
C 572.56 250.03 574.39 249.42 576.00 252.00
C 573.81 260.59 569.50 271.03 557.92 271.93 C 546.34 272.84 537.63 263.98 535.00 254.00
C 523.87 269.81 504.22 276.98 484.25 271.60 C 464.27 266.23 472.14 236.98 488.25 230.81 C 504.37 224.64 515.23 215.78 532.00 212.00
C 530.22 199.48 535.32 179.33 522.30 176.36 C 509.27 173.40 498.30 183.02 497.41 194.75 C 496.52 206.49 481.85 208.11 472.00 211.00
C 468.56 201.03 474.31 191.58 481.75 184.75 C 489.19 177.93 496.35 174.88 505.08 171.94 C 513.82 169.00 526.06 167.28 536.25 168.80 C 546.44 170.32 553.50 176.09 556.19 185.25 C 558.88 194.42 557.61 208.70 558.78 220.22 C 559.94 231.74 552.71 254.44 566.00 256.00
M 914.00 256.00 
C 915.72 255.12 917.20 255.25 919.00 256.00
C 921.18 252.95 920.47 248.72 926.00 248.00
C 925.61 250.73 928.93 251.37 930.00 253.00
C 926.38 261.70 921.86 271.54 910.77 271.79 C 899.68 272.03 890.71 264.91 889.00 254.00
C 877.24 268.69 862.78 275.94 840.30 271.69 C 817.83 267.45 824.75 237.96 841.75 230.74 C 858.75 223.52 869.04 216.93 886.00 211.00
C 887.27 195.15 885.50 175.52 869.75 176.80 C 854.01 178.08 852.12 186.55 851.00 200.00
C 841.85 205.90 835.87 209.51 825.00 211.00
C 822.56 192.31 842.33 175.20 857.25 171.24 C 872.17 167.29 901.40 163.60 908.19 181.25 C 914.99 198.90 908.01 236.24 914.00 256.00
M 111.00 196.00 
C 111.88 207.56 113.00 230.73 101.75 236.75 C 90.50 242.77 84.25 259.92 73.25 250.75 C 62.24 241.58 73.35 225.28 82.75 218.75 C 92.16 212.22 101.82 203.19 111.00 196.00
M 230.00 246.00 
C 215.29 251.99 201.01 249.53 189.25 238.75 C 177.48 227.97 176.89 211.28 180.00 196.00
C 190.01 201.57 200.00 209.26 207.75 218.25 C 215.50 227.24 225.97 235.39 230.00 246.00
M 600.00 308.00 
C 610.61 311.03 603.84 330.93 592.78 325.22 C 581.71 319.51 588.93 304.84 600.00 308.00
M 762.00 337.00 
C 768.33 326.40 774.22 327.58 782.25 316.25 C 790.28 304.91 803.01 316.79 790.30 323.30 C 777.60 329.82 775.61 335.75 762.00 337.00
M 301.00 355.00 
C 306.81 352.67 309.22 346.33 315.08 344.08 C 320.94 341.83 330.78 340.51 337.01 342.99 C 343.23 345.48 347.64 348.31 349.97 355.03 C 352.31 361.75 352.64 369.73 352.00 378.00 C 351.36 386.27 353.25 393.83 352.00 403.00 C 350.75 412.17 364.89 408.41 364.00 416.00
C 354.61 415.66 346.32 415.05 337.00 416.00
C 338.02 402.29 337.48 387.80 338.00 374.00 C 338.52 360.20 331.61 351.42 317.78 352.78 C 303.95 354.14 299.92 367.74 302.00 380.00 C 304.08 392.26 295.14 414.36 315.00 411.00
C 315.41 419.67 304.41 415.47 297.93 415.07 C 291.45 414.67 281.92 416.81 275.00 416.00
C 273.00 408.10 283.08 412.29 287.00 409.00
C 288.18 398.28 287.92 385.86 288.00 375.00 C 288.08 364.14 290.85 348.67 275.00 353.00
C 275.30 342.16 285.11 349.28 292.68 343.68 C 300.25 338.08 305.13 346.39 301.00 355.00
M 543.00 357.00 
C 550.79 350.05 548.06 345.12 560.03 342.03 C 571.99 338.93 572.09 352.74 570.00 363.00
C 563.31 363.15 559.13 352.26 551.31 357.31 C 543.48 362.35 542.81 366.81 542.00 376.00 C 541.20 385.20 543.07 392.64 542.33 402.67 C 541.59 412.70 557.55 407.70 557.00 416.00
C 542.32 415.42 528.67 415.21 514.00 416.00
C 515.05 407.07 529.60 411.94 528.00 400.00 C 526.40 388.06 528.14 381.16 528.00 370.00 C 527.86 358.84 528.32 349.68 514.00 353.00
C 514.40 340.78 524.27 350.54 533.02 344.02 C 541.78 337.51 543.20 348.88 543.00 357.00
M 616.00 416.00 
C 602.62 415.47 590.36 415.26 577.00 416.00
C 573.69 406.01 588.71 413.53 588.97 405.97 C 589.24 398.41 588.74 392.40 590.00 385.00 C 591.26 377.60 588.72 371.40 589.07 363.93 C 589.43 356.46 586.65 350.11 577.00 353.00
C 577.41 343.13 586.66 348.68 594.07 344.07 C 601.49 339.47 606.29 342.72 604.00 352.00 C 601.71 361.28 606.08 368.21 603.22 377.22 C 600.36 386.23 605.82 392.54 604.00 402.00 C 602.18 411.46 617.72 407.14 616.00 416.00 Z"/>
</g>
<g fill="#A90000" fill-opacity="0.93" stroke="None">
<path d="
M 177.00 71.00 
C 185.39 62.79 195.77 54.68 204.75 47.75 C 213.73 40.82 225.97 26.12 214.75 16.25 C 203.53 6.38 197.40 23.59 186.25 30.25 C 175.09 36.91 175.83 58.66 177.00 71.00 Z"/>
</g>
<g fill="#A90000" fill-opacity="0.94" stroke="None">
<path d="
M 112.00 70.00 
C 111.11 60.66 114.14 45.19 109.75 37.25 C 105.37 29.31 99.32 24.01 92.07 19.93 C 84.83 15.84 69.19 15.02 62.70 19.70 C 56.21 24.38 70.88 31.98 74.23 37.77 C 77.58 43.56 86.20 50.10 91.25 55.75 C 96.29 61.40 104.68 67.94 112.00 70.00 Z"/>
</g>
<g fill="#AA0000" fill-opacity="0.94" stroke="None">
<path d="
M 198.00 102.00 
C 200.34 94.66 207.62 88.65 213.25 83.25 C 218.88 77.85 225.84 73.44 231.75 68.75 C 237.67 64.07 243.96 55.90 247.00 50.00 C 250.04 44.10 242.86 26.08 236.75 28.75 C 230.65 31.43 227.19 42.00 220.25 45.25 C 213.30 48.50 208.02 56.10 201.08 60.08 C 194.14 64.07 189.79 69.93 184.25 76.25 C 178.70 82.57 174.88 92.82 177.00 102.00
C 184.00 102.00 191.00 102.00 198.00 102.00 Z"/>
</g>
<g fill="#AA0000" fill-opacity="0.94" stroke="None">
<path d="
M 112.00 102.00 
C 113.64 92.64 112.54 81.99 104.23 78.77 C 95.92 75.55 94.00 69.34 87.75 64.25 C 81.50 59.16 78.11 54.09 72.25 48.75 C 66.38 43.41 61.16 38.23 53.00 37.00 C 44.84 35.77 36.24 40.20 30.00 45.00
C 58.70 61.31 73.58 105.56 112.00 102.00 Z"/>
</g>
<g fill="#A90000" fill-opacity="0.94" stroke="None">
<path d="
M 265.00 55.00 
C 245.45 66.87 223.33 81.53 211.00 102.00
C 226.99 102.72 245.26 103.87 257.25 93.25 C 269.24 82.63 273.02 68.86 265.00 55.00 Z"/>
</g>
<g fill="#AA0000" fill-opacity="0.92" stroke="None">
<path d="
M 77.00 102.00 
C 70.96 94.72 63.75 87.51 56.75 80.25 C 49.75 72.98 43.03 65.25 33.00 63.00 C 22.97 60.75 8.27 71.02 18.75 78.25 C 29.24 85.47 29.47 91.73 39.77 98.23 C 50.07 104.73 64.77 101.15 77.00 102.00 Z"/>
</g>
<g fill="#000000" fill-opacity="0.97" stroke="None">
<path d="
M 440.00 116.00 
C 422.57 113.25 403.95 108.04 383.03 109.03 C 362.11 110.01 352.03 115.39 337.25 123.81 C 322.48 132.23 311.90 147.85 306.76 161.75 C 301.62 175.66 299.08 198.70 303.20 214.75 C 307.32 230.81 315.17 244.37 330.10 255.90 C 345.03 267.44 352.86 269.49 373.25 272.41 C 393.65 275.32 417.07 272.81 433.30 267.64 C 449.52 262.47 446.46 244.06 451.00 227.00
C 445.73 225.69 442.39 230.01 438.00 228.00
C 428.29 244.04 415.04 257.88 397.25 261.20 C 379.45 264.52 361.17 256.97 351.75 243.25 C 342.33 229.54 337.19 212.42 338.07 190.07 C 338.96 167.73 343.16 158.01 351.29 141.30 C 359.41 124.60 380.45 120.13 397.25 123.61 C 414.04 127.09 427.18 138.42 436.00 154.00
C 440.00 154.00 444.00 154.00 448.00 154.00
C 448.37 139.16 441.95 127.69 440.00 116.00 Z"/>
</g>
<g fill="#000000" fill-opacity="0.97" stroke="None">
<path d="
M 701.00 110.00 
C 687.04 110.05 681.92 123.39 687.61 134.25 C 693.29 145.10 709.08 144.45 714.81 134.25 C 720.54 124.06 712.78 109.95 701.00 110.00 Z"/>
</g>
<g fill="#000000" fill-opacity="0.97" stroke="None">
<path d="
M 551.00 116.00 
C 539.92 119.06 528.40 115.05 517.00 116.00
C 515.23 130.09 507.88 141.02 506.00 156.00
C 508.60 154.56 512.39 154.43 515.00 156.00
C 525.38 141.18 539.89 130.00 551.00 116.00 Z"/>
</g>
<g fill="#A90000" fill-opacity="0.78" stroke="None">
<path d="
M 0.00 157.00 
C 0.00 157.00 0.50 157.00 1.00 157.00
C 1.85 147.62 1.19 136.66 0.00 128.00
L 0.00 157.00 Z"/>
</g>
<g fill="#000000" fill-opacity="0.97" stroke="None">
<path d="
M 783.00 148.00 
C 780.33 148.00 777.67 148.00 775.00 148.00
C 770.12 161.72 754.36 176.21 741.00 178.00
C 740.81 181.31 742.72 183.96 741.00 187.00
C 745.68 185.31 750.96 186.22 756.00 186.00
C 758.14 211.81 750.04 245.82 761.20 262.75 C 772.36 279.68 799.25 273.89 810.00 257.00
C 807.61 256.94 805.14 254.33 805.00 252.00
C 796.25 259.27 780.28 261.63 782.67 244.67 C 785.06 227.71 782.40 203.26 782.00 186.00
C 789.94 188.25 799.24 185.14 807.00 187.00
C 808.28 182.83 806.28 178.68 808.00 175.00
C 799.71 173.39 791.74 175.34 783.00 175.00
C 784.18 166.52 782.89 156.36 783.00 148.00 Z"/>
</g>
<g fill="#000000" fill-opacity="0.97" stroke="None">
<path d="
M 625.00 163.00 
C 621.98 160.89 617.98 164.79 615.00 163.00
C 607.76 174.48 597.30 183.14 585.00 183.00
C 586.10 185.16 585.38 186.69 585.00 189.00
C 589.51 191.94 594.19 191.87 599.00 195.00
C 599.43 203.59 599.01 212.20 599.02 221.98 C 599.04 231.75 601.15 247.34 599.20 255.75 C 597.24 264.17 588.16 261.24 582.00 265.00
C 582.68 267.02 582.74 269.06 582.00 271.00
C 605.00 268.81 625.15 270.57 649.00 271.00
C 648.40 268.77 648.37 266.16 649.00 264.00
C 641.78 259.74 628.35 266.35 626.80 255.25 C 625.26 244.15 627.56 227.34 625.99 216.01 C 624.43 204.67 625.96 196.77 633.00 189.00
C 641.29 193.87 653.38 201.41 660.81 192.25 C 668.23 183.09 661.42 168.78 650.22 167.78 C 639.02 166.77 628.79 178.13 626.00 188.00
C 621.90 182.63 624.20 169.85 625.00 163.00 Z"/>
</g>
<g fill="#000000" fill-opacity="0.98" stroke="None">
<path d="
M 714.00 162.00 
C 711.10 163.49 706.91 163.58 704.00 162.00
C 694.47 174.04 683.63 177.15 669.00 177.00
C 669.39 178.71 668.09 185.29 670.00 184.00
C 677.11 186.72 681.37 184.96 687.00 190.00
C 686.04 199.56 688.01 216.68 687.00 227.00 C 685.99 237.32 687.61 250.01 686.13 258.08 C 684.65 266.16 672.57 260.25 667.00 263.00
C 665.57 278.16 683.57 268.06 695.00 270.00 C 706.43 271.94 719.76 269.59 731.00 272.00
C 733.55 259.28 719.85 264.19 713.00 261.00
C 713.81 229.36 713.68 195.00 714.00 162.00 Z"/>
</g>
<g fill="#AA0000" fill-opacity="0.93" stroke="None">
<path d="
M 77.00 164.00 
C 66.88 164.61 51.70 162.47 42.69 165.69 C 33.69 168.92 28.25 174.90 22.75 181.75 C 17.26 188.61 16.01 202.03 21.08 208.92 C 26.15 215.81 35.05 202.67 41.25 199.25 C 47.46 195.84 55.49 188.45 61.25 183.25 C 67.00 178.05 73.90 171.07 77.00 164.00 Z"/>
</g>
<g fill="#AA0000" fill-opacity="0.94" stroke="None">
<path d="
M 111.00 164.00 
C 104.00 164.00 97.00 164.00 90.00 164.00
C 82.49 178.13 69.44 188.52 56.08 198.08 C 42.73 207.65 32.27 227.92 50.00 239.00
C 67.63 211.86 113.54 202.22 111.00 164.00 Z"/>
</g>
<g fill="#AA0000" fill-opacity="0.94" stroke="None">
<path d="
M 260.00 220.00 
C 253.19 216.44 247.83 211.37 242.25 205.75 C 236.66 200.14 232.76 195.73 227.25 189.75 C 221.75 183.77 218.69 178.87 211.23 173.77 C 203.77 168.67 200.40 166.69 190.00 164.00 C 179.60 161.31 175.99 173.55 179.00 184.00
C 194.11 189.78 204.92 202.95 215.75 215.25 C 226.58 227.54 248.17 236.14 260.00 220.00 Z"/>
</g>
<g fill="#AA0000" fill-opacity="0.92" stroke="None">
<path d="
M 213.00 164.00 
C 219.62 171.39 226.51 178.20 233.75 185.25 C 241.00 192.29 247.61 201.37 258.00 203.00 C 268.39 204.62 282.48 195.38 272.25 187.75 C 262.01 180.12 260.80 173.91 250.25 167.75 C 239.69 161.60 225.43 164.59 213.00 164.00 Z"/>
</g>
<g fill="#000000" fill-opacity="0.97" stroke="None">
<path d="
M 1025.00 249.00 
L 1025.00 240.00
C 1023.70 239.00 1023.60 235.69 1024.00 234.00
C 1021.43 221.08 1010.59 214.97 999.75 210.39 C 988.91 205.82 972.85 208.49 964.71 196.30 C 956.58 184.11 973.65 174.66 985.75 177.80 C 997.86 180.94 1005.50 190.52 1009.00 202.00
C 1012.81 200.64 1015.64 202.46 1019.00 201.00
C 1017.69 188.06 1019.49 172.30 1005.25 170.19 C 991.00 168.09 973.91 165.44 961.92 171.87 C 949.93 178.30 943.91 188.46 944.07 202.92 C 944.22 217.38 956.72 225.63 967.77 230.79 C 978.81 235.95 994.84 230.78 1003.61 244.25 C 1012.37 257.71 985.84 271.09 975.30 263.71 C 964.77 256.34 955.28 248.62 951.00 236.00
C 948.12 238.29 944.82 235.61 942.00 237.00
C 945.48 250.66 941.70 265.57 954.90 269.09 C 968.10 272.61 982.79 275.66 996.75 272.80 C 1010.72 269.95 1020.50 260.64 1025.00 249.00 Z"/>
</g>
<g fill="#000000" fill-opacity="0.96" stroke="None">
<path d="
M 566.00 256.00 
C 552.71 254.44 559.94 231.74 558.78 220.22 C 557.61 208.70 558.88 194.42 556.19 185.25 C 553.50 176.09 546.44 170.32 536.25 168.80 C 526.06 167.28 513.82 169.00 505.08 171.94 C 496.35 174.88 489.19 177.93 481.75 184.75 C 474.31 191.58 468.56 201.03 472.00 211.00
C 481.85 208.11 496.52 206.49 497.41 194.75 C 498.30 183.02 509.27 173.40 522.30 176.36 C 535.32 179.33 530.22 199.48 532.00 212.00
C 515.23 215.78 504.37 224.64 488.25 230.81 C 472.14 236.98 464.27 266.23 484.25 271.60 C 504.22 276.98 523.87 269.81 535.00 254.00
C 537.63 263.98 546.34 272.84 557.92 271.93 C 569.50 271.03 573.81 260.59 576.00 252.00
C 574.39 249.42 572.56 250.03 571.00 248.00
C 568.15 250.52 566.41 252.31 566.00 256.00
M 532.00 220.00 
C 532.20 235.74 533.13 252.30 519.70 259.71 C 506.26 267.12 495.78 249.06 503.19 238.75 C 510.60 228.43 522.69 224.23 532.00 220.00 Z"/>
</g>
<g fill="#000000" fill-opacity="0.97" stroke="None">
<path d="
M 914.00 256.00 
C 908.01 236.24 914.99 198.90 908.19 181.25 C 901.40 163.60 872.17 167.29 857.25 171.24 C 842.33 175.20 822.56 192.31 825.00 211.00
C 835.87 209.51 841.85 205.90 851.00 200.00
C 852.12 186.55 854.01 178.08 869.75 176.80 C 885.50 175.52 887.27 195.15 886.00 211.00
C 869.04 216.93 858.75 223.52 841.75 230.74 C 824.75 237.96 817.83 267.45 840.30 271.69 C 862.78 275.94 877.24 268.69 889.00 254.00
C 890.71 264.91 899.68 272.03 910.77 271.79 C 921.86 271.54 926.38 261.70 930.00 253.00
C 928.93 251.37 925.61 250.73 926.00 248.00
C 920.47 248.72 921.18 252.95 919.00 256.00
C 917.20 255.25 915.72 255.12 914.00 256.00
M 885.00 220.00 
C 886.98 237.68 886.88 250.86 873.25 258.39 C 859.61 265.92 849.59 248.77 857.26 238.25 C 864.93 227.73 874.78 225.25 885.00 220.00 Z"/>
</g>
<g fill="#AA0000" fill-opacity="0.93" stroke="None">
<path d="
M 111.00 196.00 
C 101.82 203.19 92.16 212.22 82.75 218.75 C 73.35 225.28 62.24 241.58 73.25 250.75 C 84.25 259.92 90.50 242.77 101.75 236.75 C 113.00 230.73 111.88 207.56 111.00 196.00 Z"/>
</g>
<g fill="#AA0000" fill-opacity="0.93" stroke="None">
<path d="
M 230.00 246.00 
C 225.97 235.39 215.50 227.24 207.75 218.25 C 200.00 209.26 190.01 201.57 180.00 196.00
C 176.89 211.28 177.48 227.97 189.25 238.75 C 201.01 249.53 215.29 251.99 230.00 246.00 Z"/>
</g>
<g fill="#000000" fill-opacity="0.03" stroke="None">
<path d="
M 532.00 220.00 
C 522.69 224.23 510.60 228.43 503.19 238.75 C 495.78 249.06 506.26 267.12 519.70 259.71 C 533.13 252.30 532.20 235.74 532.00 220.00 Z"/>
</g>
<g fill="#000000" fill-opacity="0.04" stroke="None">
<path d="
M 885.00 220.00 
C 874.78 225.25 864.93 227.73 857.26 238.25 C 849.59 248.77 859.61 265.92 873.25 258.39 C 886.88 250.86 886.98 237.68 885.00 220.00 Z"/>
</g>
<g fill="#000000" fill-opacity="0.67" stroke="None">
<path d="
M 1025.00 240.00 
L 1025.00 234.00
C 1025.00 234.00 1024.03 234.12 1024.00 234.00
C 1023.60 235.69 1023.70 239.00 1025.00 240.00 Z"/>
</g>
<g fill="#B76C50" fill-opacity="0.90" stroke="None">
<path d="
M 852.00 417.00 
L 869.00 417.00
C 890.16 407.73 907.51 386.76 900.93 362.07 C 894.34 337.38 860.73 335.77 847.00 356.00
C 846.91 337.90 846.79 319.77 848.00 302.00
C 842.44 302.11 836.87 304.54 831.67 305.67 C 826.47 306.81 817.85 305.25 820.00 313.00
C 823.67 313.00 827.33 313.00 831.00 313.00
C 835.04 346.26 832.90 382.29 832.00 416.00
C 835.72 416.44 839.02 413.91 841.00 411.00
C 844.28 413.65 848.67 414.98 852.00 417.00
M 870.00 352.00 
C 889.77 354.47 890.52 380.14 884.68 395.68 C 878.84 411.21 849.87 413.17 847.00 395.00 C 844.13 376.82 846.28 349.04 870.00 352.00 Z"/>
</g>
<g fill="#B66C50" fill-opacity="0.93" stroke="None">
<path d="
M 1025.00 416.00 
L 1025.00 411.00
C 1008.56 412.14 1012.26 394.51 1012.00 382.00 C 1011.74 369.49 1011.83 353.84 1012.00 341.00 C 1012.17 328.16 1013.08 314.71 1014.00 302.00
C 1008.53 301.91 1003.08 304.94 998.00 306.00 C 992.92 307.06 984.24 305.16 986.00 313.00
C 998.46 309.46 997.66 318.08 998.22 326.78 C 998.78 335.48 998.92 343.02 999.00 352.00 C 999.08 360.98 998.24 368.81 999.00 378.00 C 999.76 387.19 996.99 393.43 998.00 403.00 C 999.01 412.57 985.00 406.98 986.00 416.00
C 999.42 415.89 1011.74 414.85 1025.00 416.00 Z"/>
</g>
<g fill="#B76C4F" fill-opacity="0.89" stroke="None">
<path d="
M 135.00 417.00 
L 159.00 417.00
C 182.26 416.13 203.49 385.35 189.92 365.08 C 176.35 344.81 131.90 364.01 130.02 334.02 C 128.15 304.03 185.59 306.78 179.00 334.00
C 191.26 335.58 183.37 318.62 188.00 312.00
C 178.17 308.05 167.78 306.26 157.00 306.00 C 146.22 305.74 136.43 307.97 128.23 314.23 C 120.03 320.49 116.35 329.01 116.00 339.00 C 115.65 348.99 119.51 359.11 128.92 363.08 C 138.34 367.04 149.95 367.18 159.93 368.07 C 169.90 368.96 179.65 374.01 180.00 385.00 C 180.35 395.99 175.55 402.72 165.22 407.22 C 154.89 411.72 145.66 409.54 134.08 406.92 C 122.49 404.31 128.94 385.97 118.00 387.00
C 117.88 395.38 118.54 403.99 117.00 412.00
C 123.06 413.29 129.38 415.35 135.00 417.00 Z"/>
</g>
<g fill="#B76C50" fill-opacity="0.90" stroke="None">
<path d="
M 457.00 417.00 
L 483.00 417.00
C 490.20 412.23 504.83 415.58 508.23 405.23 C 511.63 394.88 497.34 405.86 489.02 407.02 C 480.71 408.19 465.59 410.10 457.08 405.92 C 448.56 401.75 441.40 398.12 435.75 390.25 C 430.10 382.38 425.73 373.49 425.33 363.67 C 424.93 353.85 425.62 341.42 431.25 333.25 C 436.87 325.07 442.15 320.38 451.32 316.32 C 460.49 312.26 472.88 312.70 482.98 315.02 C 493.07 317.35 503.45 322.86 499.00 336.00
C 510.98 336.95 504.37 319.23 509.00 312.00
C 476.57 299.83 429.33 303.21 412.92 337.92 C 396.51 372.64 421.05 412.04 457.00 417.00 Z"/>
</g>
<g fill="#B76C4F" fill-opacity="0.86" stroke="None">
<path d="
M 600.00 308.00 
C 588.93 304.84 581.71 319.51 592.78 325.22 C 603.84 330.93 610.61 311.03 600.00 308.00 Z"/>
</g>
<g fill="#B86C4F" fill-opacity="0.81" stroke="None">
<path d="
M 762.00 337.00 
C 775.61 335.75 777.60 329.82 790.30 323.30 C 803.01 316.79 790.28 304.91 782.25 316.25 C 774.22 327.58 768.33 326.40 762.00 337.00 Z"/>
</g>
<g fill="#B76C4F" fill-opacity="0.91" stroke="None">
<path d="
M 709.00 417.00 
L 723.00 417.00
C 726.88 414.55 735.85 408.21 731.00 403.00
C 721.60 411.95 711.52 403.62 713.00 392.00 C 714.48 380.38 711.89 367.71 713.00 356.00
C 720.45 354.58 736.55 360.80 734.00 348.00
C 727.00 348.00 720.00 348.00 713.00 348.00
C 712.55 338.90 714.15 333.29 714.00 324.00 C 713.85 314.72 704.30 323.41 699.00 324.00
C 699.00 332.33 699.00 340.67 699.00 349.00
C 694.53 350.99 685.53 351.31 687.00 358.00
C 690.92 357.23 694.81 356.67 699.00 357.00
C 702.69 376.41 689.98 404.80 709.00 417.00 Z"/>
</g>
<g fill="#B76D4F" fill-opacity="0.90" stroke="None">
<path d="
M 301.00 355.00 
C 305.13 346.39 300.25 338.08 292.68 343.68 C 285.11 349.28 275.30 342.16 275.00 353.00
C 290.85 348.67 288.08 364.14 288.00 375.00 C 287.92 385.86 288.18 398.28 287.00 409.00
C 283.08 412.29 273.00 408.10 275.00 416.00
C 281.92 416.81 291.45 414.67 297.93 415.07 C 304.41 415.47 315.41 419.67 315.00 411.00
C 295.14 414.36 304.08 392.26 302.00 380.00 C 299.92 367.74 303.95 354.14 317.78 352.78 C 331.61 351.42 338.52 360.20 338.00 374.00 C 337.48 387.80 338.02 402.29 337.00 416.00
C 346.32 415.05 354.61 415.66 364.00 416.00
C 364.89 408.41 350.75 412.17 352.00 403.00 C 353.25 393.83 351.36 386.27 352.00 378.00 C 352.64 369.73 352.31 361.75 349.97 355.03 C 347.64 348.31 343.23 345.48 337.01 342.99 C 330.78 340.51 320.94 341.83 315.08 344.08 C 309.22 346.33 306.81 352.67 301.00 355.00 Z"/>
</g>
<g fill="#B66D50" fill-opacity="0.89" stroke="None">
<path d="
M 543.00 357.00 
C 543.20 348.88 541.78 337.51 533.02 344.02 C 524.27 350.54 514.40 340.78 514.00 353.00
C 528.32 349.68 527.86 358.84 528.00 370.00 C 528.14 381.16 526.40 388.06 528.00 400.00 C 529.60 411.94 515.05 407.07 514.00 416.00
C 528.67 415.21 542.32 415.42 557.00 416.00
C 557.55 407.70 541.59 412.70 542.33 402.67 C 543.07 392.64 541.20 385.20 542.00 376.00 C 542.81 366.81 543.48 362.35 551.31 357.31 C 559.13 352.26 563.31 363.15 570.00 363.00
C 572.09 352.74 571.99 338.93 560.03 342.03 C 548.06 345.12 550.79 350.05 543.00 357.00 Z"/>
</g>
<g fill="#B66D50" fill-opacity="0.91" stroke="None">
<path d="
M 616.00 416.00 
C 617.72 407.14 602.18 411.46 604.00 402.00 C 605.82 392.54 600.36 386.23 603.22 377.22 C 606.08 368.21 601.71 361.28 604.00 352.00 C 606.29 342.72 601.49 339.47 594.07 344.07 C 586.66 348.68 577.41 343.13 577.00 353.00
C 586.65 350.11 589.43 356.46 589.07 363.93 C 588.72 371.40 591.26 377.60 590.00 385.00 C 588.74 392.40 589.24 398.41 588.97 405.97 C 588.71 413.53 573.69 406.01 577.00 416.00
C 590.36 415.26 602.62 415.47 616.00 416.00 Z"/>
</g>
<g fill="#B76C4F" fill-opacity="0.88" stroke="None">
<path d="
M 213.00 417.00 
L 228.00 417.00
C 234.13 413.33 239.51 407.53 246.00 404.00
C 246.00 408.00 246.00 412.00 246.00 416.00
C 253.93 412.68 271.42 421.93 271.00 410.00
C 268.00 410.00 265.00 410.00 262.00 410.00
C 258.29 399.42 260.48 385.20 260.00 374.00 C 259.52 362.80 259.82 352.32 250.23 345.77 C 240.64 339.22 228.77 342.46 219.08 345.08 C 209.39 347.69 198.16 360.82 212.00 364.00
C 213.26 342.22 249.79 348.76 246.00 370.00
C 232.97 373.13 216.89 372.82 206.75 382.75 C 196.62 392.68 199.14 412.61 213.00 417.00
M 246.00 376.00 
C 254.19 390.58 232.42 418.82 218.10 403.90 C 203.78 388.97 233.66 374.18 246.00 376.00 Z"/>
</g>
<g fill="#B76D50" fill-opacity="0.88" stroke="None">
<path d="
M 635.00 417.00 
L 657.00 417.00
C 664.14 414.65 671.70 411.10 676.23 404.23 C 680.76 397.35 681.20 386.75 675.75 380.25 C 670.31 373.74 660.17 373.74 653.07 371.93 C 645.98 370.12 633.47 367.50 636.68 357.68 C 639.89 347.86 648.64 347.62 657.78 349.22 C 666.92 350.82 666.11 364.52 674.00 364.00
C 674.57 358.07 672.81 351.51 675.00 346.00
C 666.16 342.28 654.78 341.22 646.02 342.02 C 637.26 342.83 629.89 347.46 626.31 355.31 C 622.73 363.16 623.63 373.94 631.25 378.75 C 638.87 383.55 648.18 384.33 656.78 386.22 C 665.37 388.12 672.31 396.65 664.75 404.75 C 657.19 412.85 650.77 410.78 640.07 408.93 C 629.38 407.07 633.94 392.16 625.00 392.00
C 625.70 399.59 623.96 406.59 624.00 414.00
C 627.56 415.25 631.91 415.35 635.00 417.00 Z"/>
</g>
<g fill="#B76C50" fill-opacity="0.89" stroke="None">
<path d="
M 766.00 417.00 
L 784.00 417.00
C 809.20 411.94 822.77 381.24 810.31 358.70 C 797.84 336.15 761.99 336.51 747.25 356.25 C 732.52 376.00 740.31 411.24 766.00 417.00
M 779.00 348.00 
C 808.74 352.25 805.39 415.98 775.33 410.67 C 745.27 405.36 748.45 343.64 779.00 348.00 Z"/>
</g>
<g fill="#B76C4F" fill-opacity="0.89" stroke="None">
<path d="
M 922.00 417.00 
L 938.00 417.00
C 943.68 412.67 949.58 407.22 956.00 404.00
C 956.00 408.00 956.00 412.00 956.00 416.00
C 963.65 412.58 980.65 421.83 980.00 410.00
C 968.03 413.42 970.10 401.65 970.00 394.00 C 969.90 386.35 968.46 377.77 969.00 370.00 C 969.54 362.23 968.89 355.70 964.25 349.75 C 959.60 343.81 952.88 342.97 946.00 342.00 C 939.12 341.03 931.05 343.90 925.70 346.70 C 920.34 349.49 910.78 354.01 916.08 361.92 C 921.39 369.82 922.92 353.55 928.31 352.31 C 933.69 351.06 942.18 349.21 947.75 353.25 C 953.32 357.28 955.39 363.25 956.00 370.00
C 942.97 373.13 925.83 372.77 915.77 382.77 C 905.71 392.77 908.75 412.26 922.00 417.00
M 956.00 376.00 
C 964.35 390.71 941.57 418.89 927.25 403.75 C 912.93 388.61 943.61 373.95 956.00 376.00 Z"/>
</g>
<g fill="#000000" fill-opacity="0.00" stroke="None">
<path d="
M 779.00 348.00 
C 748.45 343.64 745.27 405.36 775.33 410.67 C 805.39 415.98 808.74 352.25 779.00 348.00 Z"/>
</g>
<g fill="#000000" fill-opacity="0.00" stroke="None">
<path d="
M 870.00 352.00 
C 846.28 349.04 844.13 376.82 847.00 395.00 C 849.87 413.17 878.84 411.21 884.68 395.68 C 890.52 380.14 889.77 354.47 870.00 352.00 Z"/>
</g>
<g fill="#000000" fill-opacity="0.00" stroke="None">
<path d="
M 246.00 376.00 
C 233.66 374.18 203.78 388.97 218.10 403.90 C 232.42 418.82 254.19 390.58 246.00 376.00 Z"/>
</g>
<g fill="#000000" fill-opacity="0.00" stroke="None">
<path d="
M 956.00 376.00 
C 943.61 373.95 912.93 388.61 927.25 403.75 C 941.57 418.89 964.35 390.71 956.00 376.00 Z"/>
</g>
</svg>